<?xml version="1.0" standalone="no"?>
<!DOCTYPE svg PUBLIC "-//W3C//DTD SVG 1.1//EN" "http://www.w3.org/Graphics/SVG/1.1/DTD/svg11.dtd" >
<svg>
<metadata>
Created by FontForge 20110222 at Fri Sep  5 09:16:28 2014
 By Orthosie Webhosting
Chalet (C) 2000 House Industries/Brand Design Co. Inc. House Industries is a registered trademark of House Industries/ Brand Design Co., Inc. 
</metadata>
<defs>
<font id="Chalet-ParisNineteenSixty" horiz-adv-x="156" >
  <font-face 
    font-family="Chalet"
    font-weight="550"
    font-stretch="normal"
    units-per-em="1000"
    panose-1="2 0 6 3 2 0 0 2 0 4"
    ascent="800"
    descent="-200"
    x-height="515"
    cap-height="694"
    bbox="-24 -252 1141 921"
    underline-thickness="8"
    underline-position="-47"
    unicode-range="U+0020-FB02"
  />
<missing-glyph horiz-adv-x="500" 
 />
    <glyph glyph-name="fi" unicode="fi" horiz-adv-x="445" 
d="M118 478v-478h-38v478h-70v37h70v36q0 43 12 77.5t34.5 57.5t55 34.5t74.5 7.5v-34q-73 4 -105.5 -36.5t-32.5 -109.5v-33h251v-515h-37v478h-214zM369 602h-37v92h37v-92z" />
    <glyph glyph-name="fl" unicode="fl" horiz-adv-x="450" 
d="M118 478v-478h-38v478h-70v37h70v36q0 43 12 77.5t34.5 57.5t55 34.5t74.5 7.5v-34q-73 4 -105.5 -36.5t-32.5 -109.5v-33h138v-37h-138zM374 0h-37v744h37v-744z" />
    <glyph glyph-name=".notdef" horiz-adv-x="500" 
 />
    <glyph glyph-name=".null" horiz-adv-x="0" 
 />
    <glyph glyph-name="nonmarkingreturn" horiz-adv-x="295" 
 />
    <glyph glyph-name="space" unicode=" " horiz-adv-x="295" 
 />
    <glyph glyph-name="exclam" unicode="!" horiz-adv-x="206" 
d="M85 93h37v-93h-37v93zM85 694h37v-515h-37v515z" />
    <glyph glyph-name="quotedbl" unicode="&#x22;" horiz-adv-x="233" 
d="M89 515h-37v179h37v-179zM182 515h-37v179h37v-179z" />
    <glyph glyph-name="numbersign" unicode="#" horiz-adv-x="517" 
d="M195 444l-28 -193h156l29 193h-157zM361 251h106l-6 -37h-106l-25 -177h-38l26 177h-156l-26 -177h-38l26 177h-106l6 37h105l28 193h-105l5 37h106l26 176h37l-26 -176h157l25 176h38l-26 -176h106l-5 -37h-106z" />
    <glyph glyph-name="dollar" unicode="$" horiz-adv-x="487" 
d="M416 211q0 25 -8 44t-26.5 33.5t-48.5 25.5t-74 21v-256q32 2 60.5 11t50 25.5t34 40t12.5 55.5zM224 615q-29 -2 -54.5 -10.5t-45 -23.5t-31 -37t-11.5 -50q0 -42 32.5 -68.5t109.5 -45.5v235zM259 -29h-35v74q-44 2 -80 17t-61.5 40t-39.5 58.5t-13 72.5h37
q0 -37 13 -65t35 -47t50.5 -29.5t58.5 -12.5v264q-38 8 -70.5 20t-56.5 30t-38 42.5t-14 58.5q0 66 48.5 108.5t130.5 47.5v78h35v-78q43 -3 76 -17.5t55.5 -37.5t34 -53.5t11.5 -64.5h-37q0 31 -11 56t-29.5 42.5t-44 27.5t-55.5 12v-242q51 -11 83.5 -23t54.5 -27
q56 -40 56 -112q0 -38 -14.5 -67.5t-40 -50.5t-61.5 -33.5t-78 -14.5v-74z" />
    <glyph glyph-name="percent" unicode="%" horiz-adv-x="767" 
d="M587 51q24 0 45.5 9t37.5 25t25 37.5t9 45.5t-9 45.5t-25 37.5t-37.5 25t-45.5 9t-45 -9t-37 -25t-25 -37.5t-9 -45.5t9 -45.5t25 -37.5t37 -25t45 -9zM180 409q24 0 45 9t37 25t25 37.5t9 45.5t-9 45.5t-25 37.5t-37 25.5t-45 9.5t-45 -9.5t-37 -25.5t-25 -37.5
t-9 -45.5t9 -45.5t25 -37.5t37 -25t45 -9zM587 322q32 0 60 -12t49 -33t33 -49t12 -60t-12 -60t-33 -48.5t-49 -32.5t-60 -12t-59.5 12t-48.5 32.5t-33 48.5t-12 60t12 60t33 49t48.5 33t59.5 12zM214 0h-42l380 694h43zM180 680q31 0 59 -12t49 -33t33.5 -49t12.5 -60
t-12.5 -60t-33.5 -48.5t-49 -32.5t-59 -12q-32 0 -60 12t-48.5 32.5t-32.5 48.5t-12 60t12 60t32.5 49t48.5 33t60 12z" />
    <glyph glyph-name="ampersand" unicode="&#x26;" horiz-adv-x="620" 
d="M233 388q-46 -26 -77 -49.5t-49.5 -47.5t-26.5 -49.5t-8 -53.5q0 -34 15 -64t41 -52.5t60.5 -36t74.5 -13.5q66 0 113.5 28t75.5 76zM242 432q38 21 64 39.5t41.5 35.5t22 33t6.5 33q0 22 -7.5 41t-21.5 33.5t-33 22.5t-41 8q-24 0 -44 -8t-34.5 -22.5t-22.5 -34
t-8 -41.5t10.5 -47.5t30.5 -48.5zM477 96q-34 -51 -89 -80t-125 -29q-47 0 -89 15.5t-73.5 42.5t-50 63.5t-18.5 77.5q0 40 13 72.5t37 60t57 51t72 45.5l-32 38q-53 61 -53 119q0 30 11.5 55.5t31 44.5t46.5 29.5t58 10.5q30 0 56 -10.5t45 -29t30 -44t11 -55.5
q0 -49 -39 -88.5t-111 -79.5l204 -244q20 49 20 108v57h37v-57q0 -40 -8 -75t-22 -65l108 -129h-46z" />
    <glyph glyph-name="quotesingle" unicode="'" horiz-adv-x="139" 
d="M89 515h-37v179h37v-179z" />
    <glyph glyph-name="parenleft" unicode="(" horiz-adv-x="220" 
d="M235 778q-71 -93 -111 -209t-40 -244q0 -129 40 -244.5t111 -208.5h-41q-72 94 -111.5 209.5t-39.5 243.5t39.5 243.5t111.5 209.5h41z" />
    <glyph glyph-name="parenright" unicode=")" horiz-adv-x="220" 
d="M26 778q72 -94 111.5 -209.5t39.5 -243.5t-39.5 -243.5t-111.5 -209.5h-40q71 93 111 208.5t40 244.5q0 128 -40 244t-111 209h40z" />
    <glyph glyph-name="asterisk" unicode="*" horiz-adv-x="333" 
d="M194 544l60 -101l-29 -17l-58 102l-58 -102l-29 17l60 101l-118 -1v33l118 -1l-60 102l29 16l58 -102l58 102l29 -16l-60 -102l118 2v-34z" />
    <glyph glyph-name="plus" unicode="+" horiz-adv-x="470" 
d="M254 258v-183h-37v183h-182v36h182v182h37v-182h182v-36h-182z" />
    <glyph glyph-name="comma" unicode="," 
d="M97 93v-110q0 -21 -7 -36.5t-18 -26t-25 -15.5t-29 -5v34q20 1 31.5 14t11.5 35v110h36z" />
    <glyph glyph-name="hyphen" unicode="-" horiz-adv-x="301" 
d="M258 258h-215v37h215v-37z" />
    <glyph glyph-name="hyphen" unicode="&#xad;" horiz-adv-x="301" 
d="M258 258h-215v37h215v-37z" />
    <glyph glyph-name="period" unicode="." 
d="M97 0h-37v93h37v-93z" />
    <glyph glyph-name="slash" unicode="/" horiz-adv-x="268" 
d="M221 744h38l-210 -744h-39z" />
    <glyph glyph-name="zero" unicode="0" horiz-adv-x="550" 
d="M276 23q48 0 86 22t64 63t40 100t14 134t-14 134.5t-40 100.5t-64 63t-86 22t-86.5 -22t-64.5 -63t-40 -100.5t-14 -134.5t14 -134t40 -100t64.5 -63t86.5 -22zM276 697q43 0 86.5 -18.5t77.5 -60.5t55.5 -110t21.5 -166t-21.5 -165.5t-55.5 -109.5t-77.5 -61t-86.5 -19
q-44 0 -87 19t-77.5 61t-56 109.5t-21.5 165.5t21.5 166t56 110t77.5 60.5t87 18.5z" />
    <glyph glyph-name="one" unicode="1" horiz-adv-x="317" 
d="M193 0h-37v590h-102v30q48 2 75.5 18.5t31.5 55.5h32v-694z" />
    <glyph glyph-name="two" unicode="2" horiz-adv-x="529" 
d="M53 468q0 46 14.5 87.5t43 73t70.5 50t97 18.5t95 -16t66 -42t38.5 -59.5t12.5 -68.5q0 -42 -13 -74t-39.5 -60.5t-67 -55.5t-96.5 -57q-46 -25 -81.5 -49t-60 -50.5t-38 -57.5t-16.5 -70h412v-37h-450v19q0 56 17 97.5t46.5 73.5t69 57.5t84.5 49.5q54 29 91.5 53.5
t60.5 48.5t33.5 50.5t10.5 61.5q0 26 -9 52.5t-30 48.5t-54.5 35.5t-81.5 13.5q-43 0 -77.5 -14t-59 -39.5t-38 -61t-13.5 -78.5h-37z" />
    <glyph glyph-name="three" unicode="3" horiz-adv-x="540" 
d="M500 190q0 -36 -14 -72.5t-43 -65t-73.5 -46.5t-104.5 -18q-110 0 -170 56t-63 158h37q1 -36 11.5 -68t33.5 -57t60 -39.5t91 -14.5q51 0 88.5 14.5t62 38t36 53.5t11.5 61q0 70 -41 109q-26 24 -63 35t-79 11h-59v36h47q48 0 80.5 13.5t50.5 30.5q37 34 37 98
q0 65 -44 102t-122 37q-36 0 -68.5 -10.5t-56.5 -31.5t-38.5 -52.5t-14.5 -73.5h-37q0 40 13.5 76.5t40.5 64.5t67 45t94 17q56 0 95 -15.5t63 -40t34.5 -56t10.5 -62.5q0 -60 -29.5 -100t-78.5 -57q73 -20 104 -68t31 -108z" />
    <glyph glyph-name="four" unicode="4" horiz-adv-x="535" 
d="M370 632l-297 -417h297v417zM408 0h-38v178h-342v37l342 479h38v-479h97v-37h-97v-178z" />
    <glyph glyph-name="five" unicode="5" horiz-adv-x="519" 
d="M487 217q0 -50 -17 -92t-47.5 -72.5t-72.5 -47.5t-92 -17q-49 0 -89 14.5t-69.5 40t-47.5 61t-21 77.5h38q3 -34 17.5 -63t39 -50t58 -32.5t74.5 -11.5q42 0 77.5 14.5t61 40t39.5 61t14 77.5t-13.5 77.5t-37.5 61t-58 39.5t-75 14q-52 0 -97.5 -24.5t-75.5 -69.5l-34 13
l47 366h347v-37h-314l-36 -281q30 32 74 50.5t89 18.5q48 0 88.5 -17t70 -47.5t46 -72.5t16.5 -91z" />
    <glyph glyph-name="six" unicode="6" horiz-adv-x="523" 
d="M464 217q0 43 -13 78.5t-37 61t-57.5 39.5t-73.5 14q-41 0 -75.5 -15.5t-60.5 -42.5t-40.5 -64t-14.5 -80q0 -35 13.5 -68t38 -59t59 -41.5t76.5 -15.5q41 0 75 14t58.5 39.5t38 61t13.5 78.5zM501 217q0 -51 -16.5 -93t-45.5 -72t-70 -47t-90 -17q-45 0 -88 17t-77 54.5
t-54.5 98t-20.5 147.5q0 187 64.5 289.5t183.5 102.5q81 0 133.5 -45t67.5 -124h-37q-14 63 -56 98t-108 35q-50 0 -89 -24t-66.5 -70t-42 -113.5t-14.5 -153.5q12 32 33.5 58.5t49 46t59.5 30.5t66 11q48 0 88 -17t69 -47t45 -72t16 -93z" />
    <glyph glyph-name="seven" unicode="7" horiz-adv-x="523" 
d="M495 653q-63 -54 -115.5 -125.5t-91.5 -155.5t-63.5 -178t-33.5 -194h-38q10 112 38.5 216.5t75.5 197.5q17 34 38.5 68.5t45 66.5t48.5 59.5t50 48.5h-418v37h464v-41z" />
    <glyph glyph-name="eight" unicode="8" horiz-adv-x="529" 
d="M461 189q0 36 -14.5 66.5t-40 52.5t-61.5 34t-79 12q-44 0 -80 -12t-61.5 -34t-40 -52.5t-14.5 -66.5t14.5 -66.5t41 -52t62.5 -34t78 -12.5t78 12.5t62 34t40.5 52t14.5 66.5zM266 390q36 0 66 10t52 28t34.5 43t12.5 54q0 30 -12.5 55t-34.5 43t-52 28t-66 10
t-66.5 -10t-52.5 -28t-34.5 -43t-12.5 -55q0 -29 12.5 -54t34.5 -43t52.5 -28t66.5 -10zM498 189q0 -44 -17.5 -81t-48.5 -64t-73.5 -42t-92.5 -15q-51 0 -93.5 15t-73.5 42t-48.5 64t-17.5 81q0 68 39.5 116t106.5 68q-52 19 -84 58.5t-32 93.5q0 37 15 69t42 54.5
t64.5 35.5t81.5 13t81 -13t64 -35.5t42 -54.5t15 -69q0 -54 -31.5 -93.5t-84.5 -58.5q67 -20 106.5 -68t39.5 -116z" />
    <glyph glyph-name="nine" unicode="9" horiz-adv-x="530" 
d="M438 469q0 39 -13 74t-37 61t-58 41.5t-76 15.5q-41 0 -75 -14t-58.5 -39.5t-38 -61t-13.5 -78.5q0 -42 14 -77.5t39 -61t59.5 -40t76.5 -14.5q43 0 77 16.5t56.5 44t34.5 62.5t12 71zM493 364q0 -117 -22 -190t-57 -114.5t-77.5 -56.5t-83.5 -15q-83 0 -139 42t-69 124
h38q11 -63 56 -96.5t114 -33.5q62 0 102 31t62.5 82t31 116t7.5 133q-9 -30 -26 -57t-42 -47t-58 -31.5t-72 -11.5q-49 0 -90.5 17t-71.5 47.5t-47 72.5t-17 92q0 51 16.5 93t45.5 72t70 47t90 17q43 0 86 -16t77 -54t55 -102t21 -161z" />
    <glyph glyph-name="colon" unicode=":" horiz-adv-x="157" 
d="M98 0h-37v93h37v-93zM98 387h-37v92h37v-92z" />
    <glyph glyph-name="semicolon" unicode=";" horiz-adv-x="157" 
d="M97 93v-110q0 -21 -7 -36.5t-18 -26t-25 -15.5t-29 -5v34q20 1 31.5 14t11.5 35v110h36zM98 387h-37v92h37v-92z" />
    <glyph glyph-name="semicolon" unicode="&#x37e;" horiz-adv-x="157" 
d="M97 93v-110q0 -21 -7 -36.5t-18 -26t-25 -15.5t-29 -5v34q20 1 31.5 14t11.5 35v110h36zM98 387h-37v92h37v-92z" />
    <glyph glyph-name="less" unicode="&#x3c;" horiz-adv-x="470" 
d="M83 275l345 -155v-40l-388 175v41l388 176v-40l-345 -155v-2z" />
    <glyph glyph-name="equal" unicode="=" horiz-adv-x="449" 
d="M407 177h-363v36h363v-36zM407 339h-363v36h363v-36z" />
    <glyph glyph-name="greater" unicode="&#x3e;" horiz-adv-x="470" 
d="M389 277l-345 155v40l388 -176v-41l-388 -175v40l345 155v2z" />
    <glyph glyph-name="question" unicode="?" horiz-adv-x="486" 
d="M210 93h37v-93h-37v93zM25 515q6 91 64 143.5t155 52.5q48 0 87.5 -13.5t67 -38t42.5 -59t15 -76.5q0 -35 -9.5 -60t-24.5 -44t-34.5 -34t-39.5 -30t-38 -30.5t-32 -35.5t-22.5 -45t-8.5 -58v-8h-37v8q0 40 10.5 69.5t27 52t37 40t41.5 32.5q18 14 35 28t29.5 30.5t20 37
t7.5 48.5q0 69 -46.5 110.5t-127.5 41.5t-128.5 -43.5t-52.5 -118.5h-38z" />
    <glyph glyph-name="at" unicode="@" horiz-adv-x="741" 
d="M485 351q9 27 12 57t-4 56t-26.5 43t-56.5 17q-30 0 -60 -12.5t-56 -35.5t-46.5 -56t-31.5 -73q-10 -34 -7.5 -65t14.5 -55t33 -38t48 -14q60 0 107.5 47t73.5 129zM695 150q-51 -78 -129 -120.5t-178 -42.5q-73 0 -137 28.5t-112 77.5t-75.5 114.5t-27.5 140.5t28 141
t76 115.5t112.5 78t138.5 28.5q58 0 116 -18.5t104.5 -56.5t75 -96.5t28.5 -138.5q0 -53 -16 -102.5t-43 -87.5t-61.5 -61t-71.5 -23t-58 23t-18 65q-28 -35 -64.5 -55t-79.5 -20q-39 0 -67 18.5t-44.5 49.5t-19.5 69.5t8 79.5q12 44 35.5 81t54 64t66 42t72.5 15
q44 0 74.5 -22.5t40.5 -64.5l22 70h38q-3 -11 -9 -29t-13 -41.5t-15 -49.5t-16 -51q-18 -60 -40 -129q-13 -41 -2.5 -61.5t36.5 -20.5q29 0 57 21t49.5 55t34.5 77t13 88q0 70 -25.5 122.5t-66.5 86.5t-92 51t-103 17q-66 0 -124 -26.5t-101 -71.5t-68 -105t-25 -127
t24.5 -126t67.5 -103.5t100.5 -70.5t122.5 -26q83 0 150 33.5t112 94.5h45z" />
    <glyph glyph-name="A" unicode="A" horiz-adv-x="583" 
d="M291 643l-140 -367h281zM137 239l-92 -239h-40l266 694h41l266 -694h-40l-92 239h-309z" />
    <glyph glyph-name="B" unicode="B" horiz-adv-x="626" 
d="M549 192q0 73 -43.5 113.5t-123.5 40.5h-261v-309h264q31 0 60.5 9t52.5 28t37 48.5t14 69.5zM121 382h261q27 0 53.5 8t47.5 25t33.5 43t12.5 62q0 66 -39 101.5t-111 35.5h-258v-275zM586 192q0 -42 -14.5 -77.5t-41 -61t-63.5 -39.5t-82 -14h-301v694h295
q88 0 137.5 -46.5t49.5 -127.5q0 -55 -26.5 -94.5t-71.5 -59.5q57 -20 87.5 -64t30.5 -110z" />
    <glyph glyph-name="C" unicode="C" horiz-adv-x="729" 
d="M695 220q-19 -51 -51 -93.5t-73.5 -73.5t-91.5 -48t-104 -17q-71 0 -133.5 28.5t-109 77.5t-73.5 115t-27 141t27 140.5t73.5 114.5t109 77.5t133.5 28.5q56 0 106.5 -17t92 -47.5t73 -73t49.5 -93.5h-40q-17 43 -45 79t-64.5 61.5t-80 39.5t-91.5 14q-63 0 -119 -25.5
t-97.5 -69.5t-65.5 -103t-24 -126q0 -68 24 -127t65.5 -103t97.5 -69.5t119 -25.5q47 0 90 14.5t79 40t64.5 61.5t46.5 79h40z" />
    <glyph glyph-name="D" unicode="D" horiz-adv-x="673" 
d="M606 348q0 149 -70.5 229t-201.5 80h-213v-620h213q64 0 114.5 21.5t85.5 61.5t53.5 97.5t18.5 130.5zM643 348q0 -80 -21.5 -144.5t-61.5 -109.5t-97 -69.5t-129 -24.5h-250v694h250q73 0 130 -23.5t97 -68t61 -109t21 -145.5z" />
    <glyph glyph-name="E" unicode="E" horiz-adv-x="598" 
d="M121 382h379v-36h-379v-309h423v-37h-460v694h460v-37h-423v-275z" />
    <glyph glyph-name="F" unicode="F" horiz-adv-x="563" 
d="M121 382h362v-36h-362v-346h-37v694h442v-37h-405v-275z" />
    <glyph glyph-name="G" unicode="G" horiz-adv-x="760" 
d="M711 0h-37v189q-38 -94 -115.5 -147.5t-183.5 -53.5q-71 0 -133.5 28.5t-109 77.5t-73.5 115t-27 141t27 140.5t73.5 114.5t109 77.5t133.5 28.5q58 0 108.5 -16t92 -45.5t72.5 -72.5t49 -97h-40q-35 91 -108.5 142.5t-173.5 51.5q-63 0 -119 -25.5t-97.5 -69.5
t-65.5 -103t-24 -126q0 -68 24 -127t65.5 -103t97.5 -69.5t119 -25.5q61 0 113.5 21.5t91.5 60.5t63 93t30 119h-291v37h329v-356z" />
    <glyph glyph-name="H" unicode="H" horiz-adv-x="706" 
d="M624 0h-37v345h-466v-345h-37v694h37v-311h466v311h37v-694z" />
    <glyph glyph-name="I" unicode="I" horiz-adv-x="209" 
d="M124 0h-37v694h37v-694z" />
    <glyph glyph-name="J" unicode="J" horiz-adv-x="519" 
d="M437 205q0 -50 -15 -90t-42 -68.5t-65.5 -44t-86.5 -15.5q-44 0 -82 16t-66 44.5t-44 66.5t-16 82h37q0 -36 13 -67.5t36 -54.5t54 -36t68 -13q80 0 126 48t46 132v489h37v-489z" />
    <glyph glyph-name="K" unicode="K" horiz-adv-x="586" 
d="M118 257v-257h-37v694h37v-386l380 386h52l-264 -267l307 -427h-46l-287 400z" />
    <glyph glyph-name="L" unicode="L" horiz-adv-x="545" 
d="M121 694v-657h399v-37h-436v694h37z" />
    <glyph glyph-name="M" unicode="M" horiz-adv-x="814" 
d="M733 0h-38v607l-266 -607h-41l-267 607v-607h-37v694h39l285 -649l285 649h40v-694z" />
    <glyph glyph-name="N" unicode="N" horiz-adv-x="708" 
d="M627 0h-42l-464 638v-638h-37v694h42l464 -638v638h37v-694z" />
    <glyph glyph-name="O" unicode="O" horiz-adv-x="748" 
d="M375 25q63 0 119 25.5t97 70t65 103.5t24 126q0 68 -23.5 127.5t-65 103t-97 68.5t-119.5 25q-63 0 -119 -25.5t-97.5 -69.5t-65.5 -103t-24 -126q0 -68 24 -127t65.5 -103t97.5 -69.5t119 -25.5zM375 711q72 0 135 -28t109 -76.5t72.5 -114.5t26.5 -142q0 -75 -27 -141
t-73.5 -115t-109 -77.5t-133.5 -28.5t-133.5 28.5t-109 77.5t-73.5 115t-27 141t27 140.5t73.5 114.5t109 77.5t133.5 28.5z" />
    <glyph glyph-name="P" unicode="P" horiz-adv-x="591" 
d="M530 502q0 74 -44 114.5t-125 40.5h-240v-311h243q31 0 61 9.5t53 28.5t37.5 48.5t14.5 69.5zM567 502q0 -43 -15 -78.5t-41.5 -61t-64 -39.5t-82.5 -14h-243v-309h-37v694h277q96 0 151 -51.5t55 -140.5z" />
    <glyph glyph-name="Q" unicode="Q" horiz-adv-x="748" 
d="M681 350q0 68 -23.5 127.5t-65 103t-97.5 68.5t-120 25q-63 0 -119 -25.5t-97.5 -69.5t-65.5 -103t-24 -126q0 -68 24 -127t65.5 -103t97.5 -69.5t119 -25.5q48 0 91.5 15t80.5 41l-83 80h54l57 -56q49 45 77.5 108.5t28.5 136.5zM684 0h-54l-56 55q-42 -32 -92.5 -49.5
t-106.5 -17.5q-71 0 -133.5 28.5t-109 77.5t-73.5 115t-27 141t27 140.5t73.5 114.5t109 77.5t133.5 28.5q72 0 135 -28t109 -76.5t72.5 -114.5t26.5 -142q0 -81 -31 -151t-85 -120z" />
    <glyph glyph-name="R" unicode="R" horiz-adv-x="629" 
d="M380 346q31 0 60.5 9.5t52.5 28.5t37.5 48.5t14.5 69.5q0 74 -44 114.5t-125 40.5h-255v-311h259zM562 84q0 -20 4.5 -44.5t10.5 -39.5h-38q-7 14 -10.5 32.5t-3.5 42.5v101q0 41 -13.5 67t-35 41t-47.5 20.5t-51 5.5h-257v-310h-37v694h292q97 0 152 -51.5t55 -140.5
q0 -63 -31 -108t-85 -66q46 -17 70.5 -55.5t24.5 -96.5v-92z" />
    <glyph glyph-name="S" unicode="S" horiz-adv-x="596" 
d="M297 712q60 0 104 -17.5t72.5 -46.5t42.5 -66t14 -75h-37q0 38 -14 69.5t-39.5 53.5t-61.5 34t-81 12t-81.5 -11t-62.5 -30.5t-40 -47t-14 -60.5q0 -57 47.5 -91t158.5 -56q58 -12 104 -27t77.5 -37t48 -53.5t16.5 -76.5t-18 -82t-52 -63t-81.5 -40t-105.5 -14
q-45 0 -90 13.5t-81 41t-58 70t-22 99.5h37q0 -48 18.5 -83t48.5 -58t68.5 -34t78.5 -11q102 0 161 43t59 118q0 32 -11 56t-36.5 42.5t-66.5 33t-102 26.5q-46 9 -88.5 22t-75.5 34t-52.5 51.5t-19.5 75.5q0 42 17 76t47.5 58t74 37.5t96.5 13.5z" />
    <glyph glyph-name="T" unicode="T" horiz-adv-x="516" 
d="M277 657v-657h-37v657h-233v37h504v-37h-234z" />
    <glyph glyph-name="U" unicode="U" horiz-adv-x="676" 
d="M605 248q0 -57 -19.5 -105t-54.5 -82.5t-84 -54t-108 -19.5t-107.5 19.5t-84 54t-55 82.5t-19.5 105v446h37v-446q0 -50 16.5 -91t47 -70.5t72.5 -45.5t93 -16t93.5 16t72.5 45.5t46.5 70.5t16.5 91v446h37v-446z" />
    <glyph glyph-name="V" unicode="V" horiz-adv-x="557" 
d="M299 0h-40l-256 694h40l236 -641l235 641h40z" />
    <glyph glyph-name="W" unicode="W" horiz-adv-x="845" 
d="M641 0h-39l-178 629l-178 -629h-39l-198 694h39l178 -628l178 628h40l178 -628l178 628h38z" />
    <glyph glyph-name="X" unicode="X" horiz-adv-x="536" 
d="M269 320l-217 -320h-45l239 353l-231 341h45l209 -308l209 308h45l-232 -341l240 -353h-45z" />
    <glyph glyph-name="Y" unicode="Y" horiz-adv-x="546" 
d="M292 0h-37v300l-249 394h44l223 -354l223 354h44l-248 -394v-300z" />
    <glyph glyph-name="Z" unicode="Z" horiz-adv-x="546" 
d="M538 0h-525v37l478 620h-466v37h513v-38l-478 -619h478v-37z" />
    <glyph glyph-name="bracketleft" unicode="[" horiz-adv-x="263" 
d="M110 -12h128v-36h-165v790h165v-36h-128v-718z" />
    <glyph glyph-name="backslash" unicode="\" horiz-adv-x="269" 
d="M222 0l-211 744h39l210 -744h-38z" />
    <glyph glyph-name="bracketright" unicode="]" horiz-adv-x="263" 
d="M28 706v36h164v-790h-164v36h127v718h-127z" />
    <glyph glyph-name="asciicircum" unicode="^" horiz-adv-x="543" 
d="M252 694h41l220 -436h-41l-199 395l-200 -395h-41z" />
    <glyph glyph-name="underscore" unicode="_" horiz-adv-x="787" 
d="M-11 -69h811v-36h-811v36z" />
    <glyph glyph-name="grave" unicode="`" horiz-adv-x="395" 
d="M155 695l84 -102h-41l-90 102h47z" />
    <glyph glyph-name="a" unicode="a" horiz-adv-x="547" 
d="M440 305q-15 -14 -36 -22.5t-45.5 -14t-51 -8.5t-53.5 -5q-99 -10 -141 -38t-42 -81q0 -32 16 -53t38.5 -33t48 -17t44.5 -5q42 0 81.5 9.5t71 29t50.5 49.5t19 71v118zM454 0q-7 14 -10.5 32.5t-3.5 42.5v10q-31 -44 -88 -69t-134 -25q-34 0 -67.5 8.5t-60 26.5t-43 45
t-16.5 64q0 44 18.5 72t49.5 45t70.5 25t80.5 12q43 4 78 9t60 14.5t38.5 24t13.5 38.5q0 36 -15.5 58.5t-39.5 35.5t-53.5 18t-57.5 5q-71 0 -116 -28t-62 -81h-38q17 69 72.5 107t143.5 38q97 0 150 -40t53 -113v-291q0 -20 4.5 -44.5t10.5 -39.5h-38z" />
    <glyph glyph-name="b" unicode="b" horiz-adv-x="614" 
d="M550 256q0 48 -17 91t-47 74.5t-70 50t-86 18.5q-45 0 -85 -18.5t-70 -50t-47.5 -74.5t-17.5 -91t17.5 -90t47.5 -73.5t70 -49.5t85 -18q46 0 86 18t70 49.5t47 73.5t17 90zM588 256q0 -56 -20.5 -104.5t-55.5 -85t-82 -57.5t-100 -21q-72 0 -130 37.5t-90 98.5v-124h-37
v744h37v-354q32 62 90 100t130 38q53 0 100 -21.5t82 -58.5t55.5 -86.5t20.5 -105.5z" />
    <glyph glyph-name="c" unicode="c" horiz-adv-x="562" 
d="M523 160q-26 -78 -89 -125t-149 -47q-53 0 -100 21t-82 57.5t-55 85t-20 104.5t20 105.5t55 86.5t82 58.5t100 21.5q43 0 80.5 -12.5t68 -35t53.5 -54t36 -70.5h-40q-25 62 -77 98t-121 36q-45 0 -85 -18.5t-70 -50t-47.5 -74.5t-17.5 -91t17.5 -90t47.5 -73.5t70 -49.5
t85 -18q72 0 124 36t75 99h39z" />
    <glyph glyph-name="d" unicode="d" horiz-adv-x="613" 
d="M505 256q0 48 -17.5 91t-47.5 74.5t-70 50t-85 18.5t-85 -18.5t-70 -50t-47.5 -74.5t-17.5 -91t17.5 -90t47.5 -73.5t70 -49.5t85 -18t85 18t70 49.5t47.5 73.5t17.5 90zM542 0h-37v124q-32 -61 -90 -98.5t-130 -37.5q-53 0 -100 21t-82 57.5t-55 85t-20 104.5t20 105.5
t55 86.5t82 58.5t100 21.5q72 0 130 -38.5t90 -99.5v354h37v-744z" />
    <glyph glyph-name="e" unicode="e" horiz-adv-x="568" 
d="M502 295q-7 42 -26.5 77.5t-48.5 61.5t-65.5 41t-76.5 15q-41 0 -77.5 -15t-65 -41t-48 -61.5t-25.5 -77.5h433zM65 258q0 -50 18 -93t48.5 -74t71.5 -48.5t88 -17.5q45 0 78.5 11.5t57.5 30.5t40 43t25 50h39q-27 -84 -88 -128t-152 -44q-55 0 -103 21t-83.5 57t-56 85
t-20.5 105t20 105.5t55 86.5t82 58.5t100 21.5q58 0 105.5 -24t81.5 -62.5t52.5 -86.5t17.5 -97h-477z" />
    <glyph glyph-name="f" unicode="f" horiz-adv-x="259" 
d="M118 478v-478h-38v478h-70v37h70v36q0 43 12 77.5t34.5 57.5t55 34.5t74.5 7.5v-34q-73 4 -105.5 -36.5t-32.5 -109.5v-33h138v-37h-138z" />
    <glyph glyph-name="g" unicode="g" horiz-adv-x="612" 
d="M509 256q0 51 -16.5 94t-45.5 74t-69 48.5t-88 17.5q-46 0 -86 -18.5t-70 -50t-47 -74.5t-17 -91t17 -90t47 -73.5t70 -49.5t86 -18q48 0 88 17t69 48t45.5 73.5t16.5 92.5zM546 14q0 -60 -18.5 -109t-51.5 -84t-80 -54t-104 -19q-91 0 -154 44.5t-86 124.5h39
q22 -63 74 -97.5t127 -34.5q49 0 89.5 16t68.5 46t43.5 72.5t15.5 94.5v106q-31 -60 -88 -96.5t-131 -36.5q-53 0 -100 21t-82 58t-55 85.5t-20 104.5t20 105.5t55 86.5t82 58.5t100 21.5q74 0 131 -36.5t88 -97.5v121h37v-501z" />
    <glyph glyph-name="h" unicode="h" horiz-adv-x="573" 
d="M506 0h-37v311q0 85 -44.5 133t-129.5 48q-39 0 -73 -13.5t-58.5 -38t-39 -57.5t-14.5 -72v-311h-37v744h37v-316q28 46 76 73t110 27q100 0 155 -58t55 -159v-311z" />
    <glyph glyph-name="i" unicode="i" horiz-adv-x="191" 
d="M115 0h-37v515h37v-515zM115 602h-37v92h37v-92z" />
    <glyph glyph-name="j" unicode="j" horiz-adv-x="182" 
d="M110 -99q0 -69 -36 -102q-36 -34 -98 -27v36q26 -2 43.5 2.5t29.5 15.5q24 22 24 75v614h37v-614zM110 602h-37v92h37v-92z" />
    <glyph glyph-name="k" unicode="k" horiz-adv-x="500" 
d="M110 172v-172h-37v744h37v-521l302 292h53l-195 -188l220 -327h-45l-202 300z" />
    <glyph glyph-name="l" unicode="l" horiz-adv-x="191" 
d="M115 0h-37v744h37v-744z" />
    <glyph glyph-name="m" unicode="m" horiz-adv-x="885" 
d="M818 0h-37v332q0 34 -12 63t-33 50t-50.5 33t-63.5 12t-63 -12t-50 -33t-33 -50t-12 -63v-332h-37v332q0 34 -12 63t-33 50t-50.5 33t-63.5 12t-63 -12t-50 -33t-33 -50t-12 -63v-332h-37v515h37v-70q24 38 64.5 60.5t93.5 22.5q63 0 110.5 -31t69.5 -83q20 52 65.5 83
t108.5 31q43 0 79 -14.5t62 -41t40.5 -62.5t14.5 -78v-332z" />
    <glyph glyph-name="n" unicode="n" horiz-adv-x="573" 
d="M506 0h-37v311q0 85 -44.5 133t-129.5 48q-39 0 -73 -13.5t-58.5 -38t-39 -57.5t-14.5 -72v-311h-37v515h37v-87q28 46 76 73t110 27q100 0 155 -58t55 -159v-311z" />
    <glyph glyph-name="o" unicode="o" horiz-adv-x="569" 
d="M285 23q46 0 86 18.5t70 50t47 74t17 90.5q0 49 -17 92t-47 75.5t-70 51t-86 18.5q-45 0 -85 -18.5t-70 -51t-47.5 -75.5t-17.5 -92q0 -48 17.5 -90.5t47.5 -74t70 -50t85 -18.5zM285 528q53 0 100 -21.5t82 -58.5t55.5 -86.5t20.5 -105.5t-20.5 -104.5t-55.5 -85
t-82 -57.5t-100 -21t-99.5 21t-81.5 57.5t-55.5 85t-20.5 104.5t20.5 105.5t55.5 86.5t81.5 58.5t99.5 21.5z" />
    <glyph glyph-name="p" unicode="p" horiz-adv-x="609" 
d="M545 256q0 48 -17 91t-47 74.5t-70 50t-86 18.5q-45 0 -85 -18.5t-70 -50t-47.5 -74.5t-17.5 -91t17.5 -90t47.5 -73.5t70 -49.5t85 -18q46 0 86 18t70 49.5t47 73.5t17 90zM583 256q0 -56 -20.5 -104.5t-55.5 -85t-82 -57.5t-100 -21q-72 0 -130 37.5t-90 98.5v-353h-37
v744h37v-125q32 62 90 100t130 38q53 0 100 -21.5t82 -58.5t55.5 -86.5t20.5 -105.5z" />
    <glyph glyph-name="q" unicode="q" horiz-adv-x="608" 
d="M505 256q0 48 -17.5 91t-47.5 74.5t-70 50t-85 18.5t-85 -18.5t-70 -50t-47 -74.5t-17 -91t17 -90t47 -73.5t70 -49.5t85 -18t85 18t70 49.5t47.5 73.5t17.5 90zM542 -229h-37v353q-32 -61 -90 -98.5t-130 -37.5q-53 0 -100 21t-82 57.5t-55 85t-20 104.5t20 105.5
t55 86.5t82 58.5t100 21.5q72 0 130 -38.5t90 -99.5v125h37v-744z" />
    <glyph glyph-name="r" unicode="r" horiz-adv-x="328" 
d="M320 492q-51 5 -89.5 -8t-62.5 -36q-28 -25 -42.5 -60.5t-14.5 -76.5v-311h-38v515h38v-86q7 13 15 24.5t19 21.5q34 30 78 43.5t97 7.5v-34z" />
    <glyph glyph-name="s" unicode="s" horiz-adv-x="511" 
d="M478 146q1 -27 -8 -52.5t-28 -45.5q-28 -29 -72 -44.5t-98 -15.5q-98 0 -162 41.5t-77 120.5h37q14 -63 66.5 -95t134.5 -32q47 0 84 14t60 37q28 30 25 71q-2 47 -43.5 73t-135.5 40q-33 5 -68.5 11.5t-64.5 20t-48 37t-20 61.5q0 26 12.5 51.5t37 45t61 31.5t84.5 12
q86 0 140 -37t71 -107h-38q-16 52 -59.5 80.5t-112.5 28.5q-35 0 -64 -8t-50 -22t-32.5 -33.5t-11.5 -41.5q1 -44 42 -63t127 -31q40 -6 77.5 -15.5t66.5 -26t47 -42t20 -64.5z" />
    <glyph glyph-name="t" unicode="t" horiz-adv-x="279" 
d="M117 178q0 -33 8 -60t25 -46.5t43 -29.5t63 -8v-34q-42 -4 -74.5 7.5t-55 35t-34.5 58t-12 77.5v300h-70v37h70v110h37v-110h139v-37h-139v-300z" />
    <glyph glyph-name="u" unicode="u" horiz-adv-x="573" 
d="M502 0h-37v85q-26 -45 -72.5 -71t-107.5 -26q-47 0 -86.5 16t-68.5 45t-45 68.5t-16 86.5v311h37v-311q0 -39 13.5 -72t37.5 -56.5t56.5 -37t71.5 -13.5t72 13.5t57 37t37.5 56.5t13.5 72v311h37v-515z" />
    <glyph glyph-name="v" unicode="v" horiz-adv-x="448" 
d="M244 0h-40l-198 515h40l178 -464l178 464h40z" />
    <glyph glyph-name="w" unicode="w" horiz-adv-x="694" 
d="M526 0h-40l-138 454l-138 -454h-40l-157 515h39l138 -454l138 454h40l138 -454l138 454h39z" />
    <glyph glyph-name="x" unicode="x" horiz-adv-x="432" 
d="M217 235l-170 -235h-46l193 266l-181 249h46l158 -217l158 217h46l-181 -249l193 -266h-46z" />
    <glyph glyph-name="y" unicode="y" horiz-adv-x="445" 
d="M215 -75q-28 -74 -79.5 -102.5t-120.5 -15.5v35q60 -9 101 12t64 84l24 63l-194 514h40l173 -462l175 462h39z" />
    <glyph glyph-name="z" unicode="z" horiz-adv-x="437" 
d="M431 0h-421v37l362 441h-351v37h399v-37l-362 -441h373v-37z" />
    <glyph glyph-name="braceleft" unicode="{" horiz-adv-x="254" 
d="M224 -68q-57 -3 -85.5 29t-28.5 89v174q0 96 -69 96h-5v34h5q69 0 69 96v174q0 57 28.5 88.5t85.5 28.5v-30q-41 0 -59 -22.5t-18 -60.5v-174q0 -48 -14.5 -76t-42.5 -41q28 -13 42.5 -41t14.5 -76v-175q0 -38 18 -60t59 -22v-31z" />
    <glyph glyph-name="bar" unicode="|" horiz-adv-x="198" 
d="M119 744v-744h-37v744h37z" />
    <glyph glyph-name="braceright" unicode="}" horiz-adv-x="254" 
d="M220 320h-5q-69 0 -69 -96v-174q0 -57 -28.5 -89t-85.5 -29v31q42 0 59.5 22t17.5 60v175q0 48 15 76t41 41q-26 13 -41 41t-15 76v174q0 38 -17.5 60.5t-59.5 22.5v30q57 3 85.5 -28.5t28.5 -88.5v-174q0 -96 69 -96h5v-34z" />
    <glyph glyph-name="asciitilde" unicode="~" horiz-adv-x="402" 
d="M331 845q-8 -39 -28.5 -56.5t-43.5 -17.5q-19 0 -34 7t-27.5 15t-25 14.5t-27.5 5.5q-11 0 -22 -9t-18 -29h-32q8 39 28.5 56.5t43.5 17.5q20 0 34.5 -6.5t27.5 -15t25 -15t27 -6.5q11 0 22 9.5t18 29.5h32z" />
    <glyph glyph-name="Adieresis" unicode="&#xc4;" horiz-adv-x="583" 
d="M291 643l-140 -367h281zM137 239l-92 -239h-40l266 694h41l266 -694h-40l-92 239h-309zM190 777v68h48v-68h-48zM325 777v68h48v-68h-48z" />
    <glyph glyph-name="Aring" unicode="&#xc5;" horiz-adv-x="583" 
d="M282 783q22 0 37.5 16t15.5 39t-15.5 39t-37.5 16q-23 0 -38.5 -16t-15.5 -39t15.5 -39t38.5 -16zM291 643l-140 -367h281zM137 239l-92 -239h-40l266 694h41l266 -694h-40l-92 239h-309zM282 921q34 0 58 -24t24 -59q0 -34 -24 -58t-58 -24q-35 0 -59 24t-24 58
q0 35 24 59t59 24z" />
    <glyph glyph-name="Ccedilla" unicode="&#xc7;" horiz-adv-x="730" 
d="M695 220q-19 -51 -50.5 -93.5t-73 -73.5t-91.5 -48t-104 -17h-8l-26 -46q14 7 31 6.5t32 -8t25.5 -22t10.5 -35.5q0 -30 -21.5 -47.5t-56.5 -17.5q-20 0 -42.5 9t-39.5 27l11 21q15 -13 32 -21t37 -8q18 0 33 8.5t15 28.5q0 17 -11.5 28t-32.5 11q-9 0 -20.5 -3.5
t-20.5 -11.5l-24 17l36 66q-64 8 -119.5 39t-96.5 79t-64.5 110t-23.5 132q0 75 27 140.5t73.5 114.5t109.5 77.5t134 28.5q55 0 105.5 -17t92 -47.5t73.5 -73t50 -93.5h-40q-17 43 -45 79t-64.5 61.5t-80 39.5t-91.5 14q-63 0 -119 -25.5t-98 -69.5t-66 -103t-24 -126
q0 -68 24 -127t66 -103t98 -69.5t119 -25.5q47 0 90 14.5t79 40t64 61.5t46 79h40z" />
    <glyph glyph-name="Eacute" unicode="&#xc9;" horiz-adv-x="598" 
d="M121 382h379v-36h-379v-309h423v-37h-460v694h460v-37h-423v-275zM325 765h-41l84 103h47z" />
    <glyph glyph-name="Ntilde" unicode="&#xd1;" horiz-adv-x="708" 
d="M627 0h-42l-464 638v-638h-37v694h42l464 -638v638h37v-694zM493 845q-8 -39 -28.5 -56.5t-43.5 -17.5q-19 0 -34 7t-27.5 15t-25 14.5t-27.5 5.5q-11 0 -22 -9t-18 -29h-32q8 39 28.5 56.5t43.5 17.5q20 0 34.5 -6.5t27.5 -15t25 -15t27 -6.5q11 0 22 9.5t18 29.5h32z
" />
    <glyph glyph-name="Odieresis" unicode="&#xd6;" horiz-adv-x="748" 
d="M375 25q63 0 119 25.5t97 70t65 103.5t24 126q0 68 -23.5 127.5t-65 103t-97 68.5t-119.5 25q-63 0 -119 -25.5t-97.5 -69.5t-65.5 -103t-24 -126q0 -68 24 -127t65.5 -103t97.5 -69.5t119 -25.5zM375 711q72 0 135 -28t109 -76.5t72.5 -114.5t26.5 -142q0 -75 -27 -141
t-73.5 -115t-109 -77.5t-133.5 -28.5t-133.5 28.5t-109 77.5t-73.5 115t-27 141t27 140.5t73.5 114.5t109 77.5t133.5 28.5zM280 777v68h47v-68h-47zM415 777v68h48v-68h-48z" />
    <glyph glyph-name="Udieresis" unicode="&#xdc;" horiz-adv-x="676" 
d="M605 248q0 -57 -19.5 -105t-54.5 -82.5t-84 -54t-108 -19.5t-107.5 19.5t-84 54t-55 82.5t-19.5 105v446h37v-446q0 -50 16.5 -91t47 -70.5t72.5 -45.5t93 -16t93.5 16t72.5 45.5t46.5 70.5t16.5 91v446h37v-446zM248 777v68h48v-68h-48zM383 777v68h48v-68h-48z" />
    <glyph glyph-name="aacute" unicode="&#xe1;" horiz-adv-x="547" 
d="M440 305q-15 -14 -36 -22.5t-45.5 -14t-51 -8.5t-53.5 -5q-99 -10 -141 -38t-42 -81q0 -32 16 -53t38.5 -33t48 -17t44.5 -5q42 0 81.5 9.5t71 29t50.5 49.5t19 71v118zM454 0q-7 14 -10.5 32.5t-3.5 42.5v10q-31 -44 -88 -69t-134 -25q-34 0 -67.5 8.5t-60 26.5t-43 45
t-16.5 64q0 44 18.5 72t49.5 45t70.5 25t80.5 12q43 4 78 9t60 14.5t38.5 24t13.5 38.5q0 36 -15.5 58.5t-39.5 35.5t-53.5 18t-57.5 5q-71 0 -116 -28t-62 -81h-38q17 69 72.5 107t143.5 38q97 0 150 -40t53 -113v-291q0 -20 4.5 -44.5t10.5 -39.5h-38zM291 593h-41l83 102
h48z" />
    <glyph glyph-name="agrave" unicode="&#xe0;" horiz-adv-x="547" 
d="M440 305q-15 -14 -36 -22.5t-45.5 -14t-51 -8.5t-53.5 -5q-99 -10 -141 -38t-42 -81q0 -32 16 -53t38.5 -33t48 -17t44.5 -5q42 0 81.5 9.5t71 29t50.5 49.5t19 71v118zM454 0q-7 14 -10.5 32.5t-3.5 42.5v10q-31 -44 -88 -69t-134 -25q-34 0 -67.5 8.5t-60 26.5t-43 45
t-16.5 64q0 44 18.5 72t49.5 45t70.5 25t80.5 12q43 4 78 9t60 14.5t38.5 24t13.5 38.5q0 36 -15.5 58.5t-39.5 35.5t-53.5 18t-57.5 5q-71 0 -116 -28t-62 -81h-38q17 69 72.5 107t143.5 38q97 0 150 -40t53 -113v-291q0 -20 4.5 -44.5t10.5 -39.5h-38zM212 695l83 -102
h-41l-90 102h48z" />
    <glyph glyph-name="acircumflex" unicode="&#xe2;" horiz-adv-x="547" 
d="M440 305q-15 -14 -36 -22.5t-45.5 -14t-51 -8.5t-53.5 -5q-99 -10 -141 -38t-42 -81q0 -32 16 -53t38.5 -33t48 -17t44.5 -5q42 0 81.5 9.5t71 29t50.5 49.5t19 71v118zM454 0q-7 14 -10.5 32.5t-3.5 42.5v10q-31 -44 -88 -69t-134 -25q-34 0 -67.5 8.5t-60 26.5t-43 45
t-16.5 64q0 44 18.5 72t49.5 45t70.5 25t80.5 12q43 4 78 9t60 14.5t38.5 24t13.5 38.5q0 36 -15.5 58.5t-39.5 35.5t-53.5 18t-57.5 5q-71 0 -116 -28t-62 -81h-38q17 69 72.5 107t143.5 38q97 0 150 -40t53 -113v-291q0 -20 4.5 -44.5t10.5 -39.5h-38zM250 688h45l81 -99
h-45l-58 74l-59 -74h-44z" />
    <glyph glyph-name="adieresis" unicode="&#xe4;" horiz-adv-x="547" 
d="M440 305q-15 -14 -36 -22.5t-45.5 -14t-51 -8.5t-53.5 -5q-99 -10 -141 -38t-42 -81q0 -32 16 -53t38.5 -33t48 -17t44.5 -5q42 0 81.5 9.5t71 29t50.5 49.5t19 71v118zM454 0q-7 14 -10.5 32.5t-3.5 42.5v10q-31 -44 -88 -69t-134 -25q-34 0 -67.5 8.5t-60 26.5t-43 45
t-16.5 64q0 44 18.5 72t49.5 45t70.5 25t80.5 12q43 4 78 9t60 14.5t38.5 24t13.5 38.5q0 36 -15.5 58.5t-39.5 35.5t-53.5 18t-57.5 5q-71 0 -116 -28t-62 -81h-38q17 69 72.5 107t143.5 38q97 0 150 -40t53 -113v-291q0 -20 4.5 -44.5t10.5 -39.5h-38zM178 595v69h47v-69
h-47zM313 595v69h47v-69h-47z" />
    <glyph glyph-name="atilde" unicode="&#xe3;" horiz-adv-x="547" 
d="M440 306q-15 -14 -36 -22.5t-45.5 -14t-51 -8t-53.5 -5.5q-99 -10 -141 -38t-42 -80q0 -32 16 -53t38.5 -33t48 -17t44.5 -5q42 0 81.5 9.5t71 29t50.5 49t19 70.5v118zM454 1q-14 30 -14 76v9q-31 -44 -88 -69t-134 -25q-34 0 -67.5 8.5t-60 26.5t-43 45t-16.5 65
q0 43 18.5 71t49.5 45t70.5 25t80.5 12q43 4 78 9t60 14.5t38.5 24.5t13.5 39q0 36 -15.5 58.5t-39.5 35t-53.5 17.5t-57.5 5q-71 0 -116 -28t-62 -80h-38q17 69 72.5 106.5t143.5 37.5q97 0 150 -40t53 -112v-292q0 -19 4.5 -44t10.5 -40h-38zM400 673q-8 -40 -28.5 -57.5
t-43.5 -17.5q-19 0 -34 7t-27.5 15t-25 14.5t-27.5 6.5q-11 -1 -22 -10t-18 -29h-31q8 39 28 56.5t43 17.5q20 0 34.5 -6.5t27.5 -14.5t25 -14.5t27 -6.5q11 0 22.5 9t17.5 30h32z" />
    <glyph glyph-name="aring" unicode="&#xe5;" horiz-adv-x="547" 
d="M440 305q-15 -14 -36 -22.5t-45.5 -14t-51 -8.5t-53.5 -5q-99 -10 -141 -38t-42 -81q0 -32 16 -53t38.5 -33t48 -17t44.5 -5q42 0 81.5 9.5t71 29t50.5 49.5t19 71v118zM268 610q23 0 38.5 16t15.5 39t-15.5 39t-38.5 16q-22 0 -37.5 -16t-15.5 -39t15.5 -39t37.5 -16z
M454 0q-7 14 -10.5 32.5t-3.5 42.5v10q-31 -44 -88 -69t-134 -25q-34 0 -67.5 8.5t-60 26.5t-43 45t-16.5 64q0 44 18.5 72t49.5 45t70.5 25t80.5 12q43 4 78 9t60 14.5t38.5 24t13.5 38.5q0 36 -15.5 58.5t-39.5 35.5t-53.5 18t-57.5 5q-71 0 -116 -28t-62 -81h-38
q17 69 72.5 107t143.5 38q97 0 150 -40t53 -113v-291q0 -20 4.5 -44.5t10.5 -39.5h-38zM268 748q35 0 59 -24.5t24 -58.5t-24 -58t-59 -24q-34 0 -58 24t-24 58t24 58.5t58 24.5z" />
    <glyph glyph-name="ccedilla" unicode="&#xe7;" horiz-adv-x="562" 
d="M260 -58q14 7 31 6.5t32 -8t25.5 -22t10.5 -35.5q0 -30 -21.5 -47.5t-56.5 -17.5q-20 0 -42 9t-40 27l11 21q15 -13 32 -21t37 -8q19 0 34 8.5t15 28.5q0 17 -12 28t-33 11q-9 0 -20 -3.5t-21 -11.5l-23 17l35 66q-48 6 -89 29t-71.5 58.5t-48 81.5t-17.5 97
q0 56 20 105.5t55 86.5t82 58.5t100 21.5q85 0 148 -47t89 -125h-39q-25 62 -77 98t-121 36q-46 0 -86 -18.5t-70 -50t-47 -74.5t-17 -91t17 -90t47 -73.5t70 -49.5t86 -18q71 0 123 36t76 99h39q-13 -39 -35.5 -70.5t-53 -54t-68 -35t-80.5 -12.5z" />
    <glyph glyph-name="eacute" unicode="&#xe9;" horiz-adv-x="568" 
d="M502 295q-7 42 -26.5 77.5t-48.5 61.5t-65.5 41t-76.5 15q-41 0 -77.5 -15t-65 -41t-48 -61.5t-25.5 -77.5h433zM65 258q0 -50 18 -93t48.5 -74t71.5 -48.5t88 -17.5q45 0 78.5 11.5t57.5 30.5t40 43t25 50h39q-27 -84 -88 -128t-152 -44q-55 0 -103 21t-83.5 57t-56 85
t-20.5 105t20 105.5t55 86.5t82 58.5t100 21.5q58 0 105.5 -24t81.5 -62.5t52.5 -86.5t17.5 -97h-477zM313 593h-42l84 102h48z" />
    <glyph glyph-name="egrave" unicode="&#xe8;" horiz-adv-x="568" 
d="M502 295q-7 42 -26.5 77.5t-48.5 61.5t-65.5 41t-76.5 15q-41 0 -77.5 -15t-65 -41t-48 -61.5t-25.5 -77.5h433zM65 258q0 -50 18 -93t48.5 -74t71.5 -48.5t88 -17.5q45 0 78.5 11.5t57.5 30.5t40 43t25 50h39q-27 -84 -88 -128t-152 -44q-55 0 -103 21t-83.5 57t-56 85
t-20.5 105t20 105.5t55 86.5t82 58.5t100 21.5q58 0 105.5 -24t81.5 -62.5t52.5 -86.5t17.5 -97h-477zM218 695l83 -102h-41l-90 102h48z" />
    <glyph glyph-name="ecircumflex" unicode="&#xea;" horiz-adv-x="568" 
d="M502 295q-7 42 -26.5 77.5t-48.5 61.5t-65.5 41t-76.5 15q-41 0 -77.5 -15t-65 -41t-48 -61.5t-25.5 -77.5h433zM65 258q0 -50 18 -93t48.5 -74t71.5 -48.5t88 -17.5q45 0 78.5 11.5t57.5 30.5t40 43t25 50h39q-27 -84 -88 -128t-152 -44q-55 0 -103 21t-83.5 57t-56 85
t-20.5 105t20 105.5t55 86.5t82 58.5t100 21.5q58 0 105.5 -24t81.5 -62.5t52.5 -86.5t17.5 -97h-477zM260 688h45l81 -99h-45l-58 74l-58 -74h-45z" />
    <glyph glyph-name="edieresis" unicode="&#xeb;" horiz-adv-x="568" 
d="M502 295q-7 42 -26.5 77.5t-48.5 61.5t-65.5 41t-76.5 15q-41 0 -77.5 -15t-65 -41t-48 -61.5t-25.5 -77.5h433zM65 258q0 -50 18 -93t48.5 -74t71.5 -48.5t88 -17.5q45 0 78.5 11.5t57.5 30.5t40 43t25 50h39q-27 -84 -88 -128t-152 -44q-55 0 -103 21t-83.5 57t-56 85
t-20.5 105t20 105.5t55 86.5t82 58.5t100 21.5q58 0 105.5 -24t81.5 -62.5t52.5 -86.5t17.5 -97h-477zM198 595v69h47v-69h-47zM334 595v69h47v-69h-47z" />
    <glyph glyph-name="iacute" unicode="&#xed;" horiz-adv-x="191" 
d="M115 0h-37v515h37v-515zM114 592h-41l84 103h48z" />
    <glyph glyph-name="igrave" unicode="&#xec;" horiz-adv-x="191" 
d="M115 0h-37v515h37v-515zM27 695l83 -103h-40l-91 103h48z" />
    <glyph glyph-name="icircumflex" unicode="&#xee;" horiz-adv-x="191" 
d="M115 0h-37v515h37v-515zM73 680h45l81 -99h-45l-59 74l-58 -74h-45z" />
    <glyph glyph-name="idieresis" unicode="&#xef;" horiz-adv-x="191" 
d="M115 0h-37v515h37v-515zM11 595v69h47v-69h-47zM132 595v69h47v-69h-47z" />
    <glyph glyph-name="ntilde" unicode="&#xf1;" horiz-adv-x="573" 
d="M506 0h-37v311q0 85 -44.5 133t-129.5 48q-39 0 -73 -13.5t-58.5 -38t-39 -57.5t-14.5 -72v-311h-37v515h37v-87q28 46 76 73t110 27q100 0 155 -58t55 -159v-311zM420 673q-8 -40 -28.5 -57.5t-43.5 -17.5q-19 0 -34 7t-27.5 15t-25 14.5t-27.5 6.5q-11 -1 -22 -10
t-18 -29h-31q8 39 28 56.5t43 17.5q20 0 34.5 -6.5t27.5 -14.5t25 -14.5t27 -6.5q11 0 22.5 9t17.5 30h32z" />
    <glyph glyph-name="oacute" unicode="&#xf3;" horiz-adv-x="569" 
d="M285 23q46 0 86 18.5t70 50t47 74t17 90.5q0 49 -17 92t-47 75.5t-70 51t-86 18.5q-45 0 -85 -18.5t-70 -51t-47.5 -75.5t-17.5 -92q0 -48 17.5 -90.5t47.5 -74t70 -50t85 -18.5zM285 528q53 0 100 -21.5t82 -58.5t55.5 -86.5t20.5 -105.5t-20.5 -104.5t-55.5 -85
t-82 -57.5t-100 -21t-99.5 21t-81.5 57.5t-55.5 85t-20.5 104.5t20.5 105.5t55.5 86.5t81.5 58.5t99.5 21.5zM310 593h-41l83 102h48z" />
    <glyph glyph-name="ograve" unicode="&#xf2;" horiz-adv-x="569" 
d="M285 23q46 0 86 18.5t70 50t47 74t17 90.5q0 49 -17 92t-47 75.5t-70 51t-86 18.5q-45 0 -85 -18.5t-70 -51t-47.5 -75.5t-17.5 -92q0 -48 17.5 -90.5t47.5 -74t70 -50t85 -18.5zM285 528q53 0 100 -21.5t82 -58.5t55.5 -86.5t20.5 -105.5t-20.5 -104.5t-55.5 -85
t-82 -57.5t-100 -21t-99.5 21t-81.5 57.5t-55.5 85t-20.5 104.5t20.5 105.5t55.5 86.5t81.5 58.5t99.5 21.5zM217 695l83 -102h-41l-90 102h48z" />
    <glyph glyph-name="ocircumflex" unicode="&#xf4;" horiz-adv-x="569" 
d="M285 23q46 0 86 18.5t70 50t47 74t17 90.5q0 49 -17 92t-47 75.5t-70 51t-86 18.5q-45 0 -85 -18.5t-70 -51t-47.5 -75.5t-17.5 -92q0 -48 17.5 -90.5t47.5 -74t70 -50t85 -18.5zM285 528q53 0 100 -21.5t82 -58.5t55.5 -86.5t20.5 -105.5t-20.5 -104.5t-55.5 -85
t-82 -57.5t-100 -21t-99.5 21t-81.5 57.5t-55.5 85t-20.5 104.5t20.5 105.5t55.5 86.5t81.5 58.5t99.5 21.5zM259 688h45l81 -99h-45l-59 74l-58 -74h-45z" />
    <glyph glyph-name="odieresis" unicode="&#xf6;" horiz-adv-x="569" 
d="M285 23q46 0 86 18.5t70 50t47 74t17 90.5q0 49 -17 92t-47 75.5t-70 51t-86 18.5q-45 0 -85 -18.5t-70 -51t-47.5 -75.5t-17.5 -92q0 -48 17.5 -90.5t47.5 -74t70 -50t85 -18.5zM285 528q53 0 100 -21.5t82 -58.5t55.5 -86.5t20.5 -105.5t-20.5 -104.5t-55.5 -85
t-82 -57.5t-100 -21t-99.5 21t-81.5 57.5t-55.5 85t-20.5 104.5t20.5 105.5t55.5 86.5t81.5 58.5t99.5 21.5zM193 595v69h47v-69h-47zM328 595v69h47v-69h-47z" />
    <glyph glyph-name="otilde" unicode="&#xf5;" horiz-adv-x="569" 
d="M285 23q46 0 86 18.5t70 50t47 74t17 90.5q0 49 -17 92t-47 75.5t-70 51t-86 18.5q-45 0 -85 -18.5t-70 -51t-47.5 -75.5t-17.5 -92q0 -48 17.5 -90.5t47.5 -74t70 -50t85 -18.5zM285 528q53 0 100 -21.5t82 -58.5t55.5 -86.5t20.5 -105.5t-20.5 -104.5t-55.5 -85
t-82 -57.5t-100 -21t-99.5 21t-81.5 57.5t-55.5 85t-20.5 104.5t20.5 105.5t55.5 86.5t81.5 58.5t99.5 21.5zM406 673q-8 -40 -28 -57.5t-43 -17.5q-20 0 -34.5 7t-27.5 15t-25.5 14.5t-27.5 6.5q-11 -1 -22 -10t-18 -29h-31q8 39 28 56.5t43 17.5q20 0 35 -6.5t27.5 -14.5
t25 -14.5t27.5 -6.5q11 0 22 9t18 30h31z" />
    <glyph glyph-name="uacute" unicode="&#xfa;" horiz-adv-x="573" 
d="M502 0h-37v85q-26 -45 -72.5 -71t-107.5 -26q-47 0 -86.5 16t-68.5 45t-45 68.5t-16 86.5v311h37v-311q0 -39 13.5 -72t37.5 -56.5t56.5 -37t71.5 -13.5t72 13.5t57 37t37.5 56.5t13.5 72v311h37v-515zM307 593h-42l84 102h48z" />
    <glyph glyph-name="ugrave" unicode="&#xf9;" horiz-adv-x="573" 
d="M502 0h-37v85q-26 -45 -72.5 -71t-107.5 -26q-47 0 -86.5 16t-68.5 45t-45 68.5t-16 86.5v311h37v-311q0 -39 13.5 -72t37.5 -56.5t56.5 -37t71.5 -13.5t72 13.5t57 37t37.5 56.5t13.5 72v311h37v-515zM229 695l84 -102h-41l-91 102h48z" />
    <glyph glyph-name="ucircumflex" unicode="&#xfb;" horiz-adv-x="573" 
d="M502 0h-37v85q-26 -45 -72.5 -71t-107.5 -26q-47 0 -86.5 16t-68.5 45t-45 68.5t-16 86.5v311h37v-311q0 -39 13.5 -72t37.5 -56.5t56.5 -37t71.5 -13.5t72 13.5t57 37t37.5 56.5t13.5 72v311h37v-515zM265 688h45l81 -99h-45l-58 74l-59 -74h-44z" />
    <glyph glyph-name="udieresis" unicode="&#xfc;" horiz-adv-x="573" 
d="M502 0h-37v85q-26 -45 -72.5 -71t-107.5 -26q-47 0 -86.5 16t-68.5 45t-45 68.5t-16 86.5v311h37v-311q0 -39 13.5 -72t37.5 -56.5t56.5 -37t71.5 -13.5t72 13.5t57 37t37.5 56.5t13.5 72v311h37v-515zM192 595v69h47v-69h-47zM328 595v69h47v-69h-47z" />
    <glyph glyph-name="dagger" unicode="&#x2020;" horiz-adv-x="331" 
d="M185 528v-306h-37v306h-122v35h122v131h37v-131h123v-35h-123z" />
    <glyph glyph-name="degree" unicode="&#xb0;" horiz-adv-x="352" 
d="M177 423q24 0 45 9.5t37 25.5t25 37.5t9 45.5t-9 45.5t-25 37t-37 25t-45 9.5t-45.5 -9.5t-37 -25t-25 -37t-9.5 -45.5t9.5 -45.5t25 -37.5t37 -25.5t45.5 -9.5zM177 694q31 0 59 -12t49 -33t33 -49t12 -59q0 -32 -12 -60t-33 -49t-49 -33t-59 -12q-32 0 -60 12t-49 33
t-33 49t-12 60q0 31 12 59t33 49t49 33t60 12z" />
    <glyph glyph-name="cent" unicode="&#xa2;" horiz-adv-x="504" 
d="M315 478q-12 4 -25 5.5t-27 1.5q-43 0 -80 -18t-64 -49t-42.5 -73t-15.5 -91q0 -71 31.5 -126t82.5 -83zM485 163q-12 -39 -33 -71.5t-49.5 -55t-64 -35t-75.5 -12.5q-35 0 -66 9l-37 -115h-37l41 128q-32 15 -57.5 39t-44 55.5t-28.5 69t-10 79.5q0 57 18 105.5t50.5 84
t76 56t94.5 20.5q33 0 63 -9l37 114h37l-41 -126q44 -20 75.5 -57.5t48.5 -88.5h-39q-14 38 -38.5 66.5t-57.5 45.5l-140 -433q27 -8 55 -8q66 0 114 38t69 101h39z" />
    <glyph glyph-name="sterling" unicode="&#xa3;" horiz-adv-x="530" 
d="M507 36q-30 -23 -59 -32t-56 -8t-53.5 9t-52.5 19q-53 23 -113 16t-117 -43l-21 31q53 38 82.5 91t29.5 110q0 27 -6.5 50t-16.5 44h-104v35h84q-1 3 -5 9q-18 31 -34 64.5t-16 76.5q0 35 13 68.5t39 60t66.5 42.5t95.5 16q57 0 98 -17.5t67.5 -46t39.5 -65t13 -73.5h-37
q0 37 -13 68t-36.5 53t-57 34t-74.5 12q-81 0 -128.5 -41.5t-47.5 -110.5q0 -35 13.5 -64t30.5 -58q4 -7 8 -13.5t8 -14.5h193v-35h-175q8 -21 13.5 -44t5.5 -50q0 -21 -4.5 -44t-13 -45.5t-20.5 -43t-28 -35.5q45 20 94.5 17t86.5 -20q25 -12 49 -19t47 -7t45.5 8.5
t45.5 26.5z" />
    <glyph glyph-name="section" unicode="&#xa7;" horiz-adv-x="503" 
d="M432 322q0 23 -8 40t-27.5 30t-51 22.5t-77.5 18.5q-35 7 -67.5 16t-58.5 24q-32 -11 -50.5 -37.5t-18.5 -58.5q0 -22 8.5 -39t28 -30.5t51 -23.5t77.5 -18q34 -6 67.5 -15t60.5 -25q30 11 48 37t18 59zM396 202q29 -29 29 -77q0 -63 -46.5 -100.5t-125.5 -37.5
q-45 0 -77.5 13t-53.5 35t-31 49t-10 56h37q0 -53 36.5 -85t98.5 -32q64 0 99.5 27t35.5 75q0 21 -8 37t-26.5 28.5t-48.5 22.5t-73 18q-36 7 -71 16t-62.5 25t-45 41t-17.5 64q0 40 20 71t55 48q-14 14 -22 33t-8 45q0 31 12.5 56t35 43t54.5 28t71 10q45 0 77 -13
t53 -34.5t31 -49t10 -55.5h-37q0 53 -36.5 85.5t-97.5 32.5q-63 0 -99.5 -28.5t-36.5 -74.5q0 -23 10 -40t30 -29t49.5 -21t67.5 -16q37 -7 72 -16.5t62 -25.5t43.5 -41t16.5 -63q0 -41 -19.5 -72t-53.5 -48z" />
    <glyph glyph-name="bullet" unicode="&#x2022;" horiz-adv-x="313" 
d="M157 258q-23 0 -42.5 8.5t-33.5 22.5t-22.5 33.5t-8.5 42.5q0 22 8.5 41t22.5 33.5t33.5 23t42.5 8.5q22 0 41 -8.5t33.5 -23t23 -33.5t8.5 -41q0 -23 -8.5 -42.5t-23 -33.5t-33.5 -22.5t-41 -8.5z" />
    <glyph glyph-name="paragraph" unicode="&#xb6;" horiz-adv-x="519" 
d="M448 0h-37v657h-111v-657h-37v309h-26q-45 0 -82.5 14t-64 39.5t-41.5 61t-15 78.5q0 89 55 140.5t151 51.5h208v-694z" />
    <glyph glyph-name="germandbls" unicode="&#xdf;" horiz-adv-x="597" 
d="M393 402q78 -18 124 -71t46 -131q0 -48 -18 -88t-50.5 -68t-78.5 -43.5t-101 -15.5q-50 0 -95 14v37q43 -15 95 -15q37 0 74.5 9.5t67.5 31t49 55.5t19 83t-19 82.5t-49 54.5t-66.5 30.5t-72.5 9.5h-98v37h73q38 0 70.5 11t56 30.5t36.5 46t13 57.5q0 38 -15.5 65.5
t-40.5 45.5t-57 27t-66 9q-20 0 -51 -5.5t-59.5 -23.5t-49 -53.5t-20.5 -95.5v-528h-37v528q0 100 58 157t159 57q49 0 89 -13t68.5 -37t44.5 -58t16 -75q0 -54 -31.5 -95t-83.5 -62z" />
    <glyph glyph-name="registered" unicode="&#xae;" horiz-adv-x="776" 
d="M523 432q0 27 -9 43t-22.5 24.5t-29 11t-27.5 2.5h-143v-162h145q16 0 31.5 5t27.5 14.5t19.5 25t7.5 36.5zM558 148h-43l-92 167h-131v-167h-37v401h180q59 0 92 -31t33 -86q0 -46 -26.5 -76.5t-71.5 -38.5zM714 349q0 68 -25.5 127.5t-70 104t-103.5 70t-126 25.5
t-126 -25.5t-103 -70t-69.5 -104t-25.5 -127.5t25.5 -127t69.5 -103.5t103 -70t126 -25.5t126 25.5t103.5 70t70 103.5t25.5 127zM751 349q0 -75 -28.5 -140.5t-78 -115t-115 -78t-140.5 -28.5t-140.5 28.5t-114.5 78t-77.5 115t-28.5 140.5t28.5 141t77.5 115t114.5 77.5
t140.5 28.5t140.5 -28.5t115 -77.5t78 -115t28.5 -141z" />
    <glyph glyph-name="copyright" unicode="&#xa9;" horiz-adv-x="776" 
d="M574 278q-11 -30 -29 -54.5t-42 -42.5t-53 -28t-61 -10q-41 0 -77 16t-62.5 44t-42 66t-15.5 81t15.5 80.5t42 65.5t62.5 44.5t77 16.5q33 0 62 -10t53.5 -28t42.5 -43t28 -55h-39q-19 45 -57.5 72.5t-88.5 27.5q-33 0 -62.5 -13.5t-51.5 -37t-34.5 -54.5t-12.5 -66
q0 -36 12.5 -67t34.5 -54.5t51.5 -37t62.5 -13.5q48 0 87 27.5t58 72.5h39zM389 23q67 0 126 25.5t103.5 70t70 103.5t25.5 127t-25.5 127.5t-70 104t-103.5 70t-126 25.5t-126 -25.5t-103 -70t-69.5 -104t-25.5 -127.5t25.5 -127t69.5 -103.5t103 -70t126 -25.5zM389 711
q75 0 140.5 -28.5t115 -77.5t78 -115t28.5 -141t-28.5 -140.5t-78 -115t-115 -78t-140.5 -28.5t-140.5 28.5t-114.5 78t-77.5 115t-28.5 140.5t28.5 141t77.5 115t114.5 77.5t140.5 28.5z" />
    <glyph glyph-name="trademark" unicode="&#x2122;" horiz-adv-x="881" 
d="M335 694v-36h-140v-400h-37v400h-140v36h317zM824 258h-37v348h-2l-153 -348h-42l-152 348h-1v-348h-38v436h41l171 -390h1l172 390h39h1v-436z" />
    <glyph glyph-name="acute" unicode="&#xb4;" horiz-adv-x="395" 
d="M213 593h-42l84 102h48z" />
    <glyph glyph-name="dieresis" unicode="&#xa8;" horiz-adv-x="394" 
d="M107 595v69h47v-69h-47zM242 595v69h48v-69h-48z" />
    <glyph glyph-name="notequal" unicode="&#x2260;" horiz-adv-x="518" 
d="M118 0h-38v478h-70v37h70v36q0 43 12 77.5t34.5 57.5t55 34.5t74.5 7.5v-34q-73 4 -105.5 -36.5t-32.5 -109.5v-33h221v36q0 43 12 77.5t34.5 57.5t55 34.5t74.5 7.5v-34q-73 4 -105.5 -36.5t-32.5 -109.5v-33h138v-37h-138v-478h-38v478h-221v-478z" />
    <glyph glyph-name="AE" unicode="&#xc6;" horiz-adv-x="980" 
d="M466 657h-134l-166 -380h300v380zM504 383h379v-38h-379v-308h422v-37h-460v239h-316l-104 -239h-41l303 694h618v-37h-422v-274z" />
    <glyph glyph-name="Oslash" unicode="&#xd8;" horiz-adv-x="748" 
d="M680 350q0 60 -18 113t-51 95l-442 -448q41 -40 93.5 -62.5t112.5 -22.5q63 0 119 25.5t97 70t65 103.5t24 126zM590 583q-42 43 -96.5 67t-118.5 24q-63 0 -119 -25.5t-97.5 -69.5t-65.5 -103t-24 -126q0 -63 20.5 -118t56.5 -98zM718 350q0 -75 -27 -141t-73.5 -115
t-109 -77.5t-133.5 -28.5q-68 0 -127 25t-105 70l-71 -71l-24 23l72 73q-42 48 -65 109.5t-23 132.5q0 75 27 140.5t73.5 114.5t109 77.5t133.5 28.5q72 0 133 -26.5t108 -74.5l68 69l23 -24l-69 -70q38 -48 59 -107t21 -128z" />
    <glyph glyph-name="infinity" unicode="&#x221e;" horiz-adv-x="704" 
d="M118 0h-38v478h-70v37h70v36q0 43 12 77.5t34.5 57.5t55 34.5t74.5 7.5v-34q-73 4 -105.5 -36.5t-32.5 -109.5v-33h221v36q0 43 12 77.5t34.5 57.5t55 34.5t74.5 7.5v-34q-73 4 -105.5 -36.5t-32.5 -109.5v-33h251v-515h-37v478h-214v-478h-38v478h-221v-478zM628 602
h-37v92h37v-92z" />
    <glyph glyph-name="plusminus" unicode="&#xb1;" horiz-adv-x="709" 
d="M118 0h-38v478h-70v37h70v36q0 43 12 77.5t34.5 57.5t55 34.5t74.5 7.5v-34q-73 4 -105.5 -36.5t-32.5 -109.5v-33h221v36q0 43 12 77.5t34.5 57.5t55 34.5t74.5 7.5v-34q-73 4 -105.5 -36.5t-32.5 -109.5v-33h138v-37h-138v-478h-38v478h-221v-478zM633 0h-37v744h37
v-744z" />
    <glyph glyph-name="lessequal" unicode="&#x2264;" 
d="M97 267h-37v93h37v-93z" />
    <glyph glyph-name="greaterequal" unicode="&#x2265;" 
d="M97 267h-37v93h37v-93z" />
    <glyph glyph-name="yen" unicode="&#xa5;" horiz-adv-x="494" 
d="M468 468v-37h-122l-73 -128h180v-36h-186v-267h-37v267h-186v36h179l-73 128h-121v37h101l-130 226h43l205 -359h1l204 359h43l-129 -226h101z" />
    <glyph glyph-name="mu" unicode="&#xb5;" 
d="M97 267h-37v93h37v-93z" />
    <glyph glyph-name="mu" unicode="&#x3bc;" 
d="M97 267h-37v93h37v-93z" />
    <glyph glyph-name="partialdiff" unicode="&#x2202;" 
d="M97 267h-37v93h37v-93z" />
    <glyph glyph-name="summation" unicode="&#x2211;" 
d="M97 267h-37v93h37v-93z" />
    <glyph glyph-name="product" unicode="&#x220f;" 
d="M97 267h-37v93h37v-93z" />
    <glyph glyph-name="pi" unicode="&#x3c0;" 
d="M97 267h-37v93h37v-93z" />
    <glyph glyph-name="integral" unicode="&#x222b;" 
d="M97 267h-37v93h37v-93z" />
    <glyph glyph-name="ordfeminine" unicode="&#xaa;" horiz-adv-x="378" 
d="M277 564q-12 -14 -37 -19.5t-66 -9.5q-32 -3 -52.5 -9.5t-32.5 -15.5t-16.5 -20t-4.5 -23q0 -18 9 -29.5t21.5 -18.5t27 -9.5t25.5 -2.5q24 0 47 5.5t40.5 16.5t28 28t10.5 40v67zM286 385q-8 16 -8 39q-17 -23 -48.5 -37.5t-78.5 -14.5q-22 0 -43.5 5.5t-38.5 17.5
t-27.5 30t-10.5 42q0 25 10.5 43t29 29.5t43.5 17.5t55 9q51 5 79 13.5t28 36.5q0 22 -21.5 40.5t-69.5 18.5q-14 0 -29.5 -2.5t-29 -9.5t-24.5 -18.5t-17 -29.5h-38q10 42 44.5 68t92.5 26q44 0 69.5 -11.5t39 -27t17 -32.5t3.5 -28v-175q0 -11 3 -26t7 -24h-37z" />
    <glyph glyph-name="ordmasculine" unicode="&#xba;" horiz-adv-x="377" 
d="M189 405q26 0 48.5 10.5t39.5 28.5t26.5 42.5t9.5 52.5t-9.5 53t-26.5 43.5t-39.5 29t-48.5 10.5t-48.5 -10.5t-39 -29t-26.5 -43.5t-10 -53t10 -52.5t26.5 -42.5t39 -28.5t48.5 -10.5zM189 709q33 0 62.5 -13.5t51.5 -36.5t35 -54t13 -66t-13 -65.5t-35 -53.5
t-51.5 -36.5t-62.5 -13.5t-62.5 13.5t-51.5 36.5t-34.5 53.5t-12.5 65.5t12.5 66t34.5 54t51.5 36.5t62.5 13.5z" />
    <glyph glyph-name="Omega" unicode="&#x3a9;" 
d="M97 267h-37v93h37v-93z" />
    <glyph glyph-name="Omega" unicode="&#x2126;" 
d="M97 267h-37v93h37v-93z" />
    <glyph glyph-name="ae" unicode="&#xe6;" horiz-adv-x="981" 
d="M440 305q-15 -14 -36 -22.5t-45.5 -14t-51 -8.5t-53.5 -5q-99 -10 -141 -38t-42 -81q0 -32 15.5 -52.5t38.5 -32.5t49.5 -17t47.5 -5q104 0 161 41t57 123v112zM481 295h433q-7 42 -26.5 77.5t-48.5 62t-65.5 41.5t-76.5 15q-41 0 -77.5 -15t-65 -41.5t-48 -62
t-25.5 -77.5zM943 160q-27 -84 -88 -128t-152 -44q-81 0 -143 42t-92 111q-15 -70 -77.5 -110t-169.5 -40q-35 0 -69 8.5t-61 26.5t-43.5 45t-16.5 65q0 43 18.5 71t49.5 45t70.5 25t80.5 12q43 4 78 9t60 14.5t38.5 24t13.5 38.5q0 36 -15.5 59t-39.5 35.5t-53.5 17.5
t-57.5 5q-71 0 -116 -28t-61 -81h-39q17 70 72.5 107.5t143.5 37.5q94 0 146 -37.5t54 -106.5q32 64 90.5 104t132.5 40q50 0 95 -19.5t79.5 -53t56 -79.5t25.5 -98l2 -20h-478v-2q0 -48 17.5 -90.5t48 -73.5t71.5 -49t89 -18q45 0 78.5 11.5t57.5 30.5t39.5 43t24.5 50h40z
" />
    <glyph glyph-name="oslash" unicode="&#xf8;" horiz-adv-x="569" 
d="M505 256q0 42 -12.5 80t-35.5 68l-318 -322q29 -28 66.5 -43.5t79.5 -15.5q46 0 86 18.5t70 50t47 74t17 90.5zM435 429q-29 30 -67.5 47t-82.5 17q-45 0 -85 -18.5t-70 -51t-47.5 -75.5t-17.5 -92q0 -42 14 -80.5t38 -68.5zM543 256q0 -56 -20.5 -104.5t-55.5 -85
t-82 -57.5t-100 -21q-49 0 -93 18.5t-78 50.5l-53 -54l-24 23l54 55q-29 35 -46 79.5t-17 95.5q0 56 20.5 105.5t55.5 86.5t81.5 58.5t99.5 21.5q51 0 96 -19.5t79 -53.5l51 51l24 -23l-52 -53q28 -35 44 -79t16 -95z" />
    <glyph glyph-name="questiondown" unicode="&#xbf;" horiz-adv-x="486" 
d="M462 175q-5 -90 -63.5 -142.5t-155.5 -52.5q-48 0 -87 13.5t-67 38t-43 59t-15 76.5q0 35 9.5 60t25 44t35 34t39.5 30q19 15 37.5 30.5t32 35t22 45t8.5 58.5v8h38v-8q0 -40 -10.5 -69.5t-27 -52t-37.5 -40t-41 -32.5q-19 -14 -36 -28t-29.5 -30.5t-20 -37t-7.5 -48.5
q0 -69 46.5 -110.5t127.5 -41.5t129 43.5t53 117.5h37zM278 598h-38v93h38v-93z" />
    <glyph glyph-name="exclamdown" unicode="&#xa1;" horiz-adv-x="207" 
d="M123 0h-37v515h37v-515zM123 602h-37v92h37v-92z" />
    <glyph glyph-name="logicalnot" unicode="&#xac;" 
d="M97 267h-37v93h37v-93z" />
    <glyph glyph-name="radical" unicode="&#x221a;" 
d="M97 267h-37v93h37v-93z" />
    <glyph glyph-name="florin" unicode="&#x192;" horiz-adv-x="410" 
d="M402 593q-22 13 -44 14.5t-39 -7.5q-43 -20 -60 -100l-10 -45h91v-36h-98l-52 -238q-18 -92 -80 -123q-23 -12 -50.5 -13t-56.5 13v37q26 -11 49 -12.5t41 8.5q23 11 38 36t23 62l49 230h-90v36h98l11 52q21 98 81 127q22 11 48.5 10.5t50.5 -13.5v-38z" />
    <glyph glyph-name="approxequal" unicode="&#x2248;" 
d="M97 267h-37v93h37v-93z" />
    <glyph glyph-name="Delta" unicode="&#x394;" 
d="M97 267h-37v93h37v-93z" />
    <glyph glyph-name="Delta" unicode="&#x2206;" 
d="M97 267h-37v93h37v-93z" />
    <glyph glyph-name="guillemotleft" unicode="&#xab;" horiz-adv-x="337" 
d="M150 431v-48l-103 -84l103 -84v-48l-130 108v48zM320 431v-48l-104 -84l104 -84v-48l-131 108v48z" />
    <glyph glyph-name="guillemotright" unicode="&#xbb;" horiz-adv-x="337" 
d="M150 323v-48l-130 -108v48l103 84l-103 84v48zM319 275l-130 -108v48l103 84l-103 84v48l130 -108v-48z" />
    <glyph glyph-name="ellipsis" unicode="&#x2026;" horiz-adv-x="727" 
d="M98 0h-37v93h37v-93zM383 0h-37v93h37v-93zM668 0h-37v93h37v-93z" />
    <glyph glyph-name="nonbreakingspace" unicode="&#xa0;" horiz-adv-x="295" 
 />
    <glyph glyph-name="Agrave" unicode="&#xc0;" horiz-adv-x="583" 
d="M291 643l-140 -367h281zM137 239l-92 -239h-40l266 694h41l266 -694h-40l-92 239h-309zM241 868l84 -103h-42l-90 103h48z" />
    <glyph glyph-name="Atilde" unicode="&#xc3;" horiz-adv-x="583" 
d="M291 643l-140 -367h281zM137 239l-92 -239h-40l266 694h41l266 -694h-40l-92 239h-309zM415 845q-8 -39 -28.5 -56.5t-43.5 -17.5q-19 0 -34 7t-27.5 15t-25 14.5t-27.5 5.5q-11 0 -22 -9t-18 -29h-31q8 39 28 56.5t43 17.5q20 0 34.5 -6.5t27.5 -15t25 -15t27 -6.5
q11 0 22.5 9.5t17.5 29.5h32z" />
    <glyph glyph-name="Otilde" unicode="&#xd5;" horiz-adv-x="748" 
d="M375 25q63 0 119 25.5t97 70t65 103.5t24 126q0 68 -23.5 127.5t-65 103t-97 68.5t-119.5 25q-63 0 -119 -25.5t-97.5 -69.5t-65.5 -103t-24 -126q0 -68 24 -127t65.5 -103t97.5 -69.5t119 -25.5zM375 711q72 0 135 -28t109 -76.5t72.5 -114.5t26.5 -142q0 -75 -27 -141
t-73.5 -115t-109 -77.5t-133.5 -28.5t-133.5 28.5t-109 77.5t-73.5 115t-27 141t27 140.5t73.5 114.5t109 77.5t133.5 28.5zM496 845q-8 -39 -28 -56.5t-43 -17.5q-20 0 -34.5 7t-27.5 15t-25.5 14.5t-27.5 5.5q-11 0 -22 -9t-18 -29h-31q8 39 28 56.5t43 17.5q20 0 35 -6.5
t27.5 -15t25 -15t27.5 -6.5q11 0 22 9.5t18 29.5h31z" />
    <glyph glyph-name="OE" unicode="&#x152;" horiz-adv-x="1195" 
d="M681 351q0 68 -23.5 127t-65 102.5t-97 68.5t-119.5 25q-63 0 -119 -25.5t-98 -69.5t-66 -103t-24 -126t24 -126t66 -103.5t98 -70t119 -25.5t118.5 25.5t97 70t65.5 103.5t24 127zM718 383h380v-38h-380v-308h423v-37h-460v193q-20 -45 -51.5 -83t-71 -65t-85.5 -42
t-97 -15q-71 0 -134 28.5t-109.5 77.5t-73.5 115t-27 141t27 140.5t73.5 114.5t109.5 77.5t134 28.5q51 0 97.5 -14.5t86 -40.5t70.5 -63.5t51 -82.5v184h460v-37h-423v-274z" />
    <glyph glyph-name="oe" unicode="&#x153;" horiz-adv-x="1046" 
d="M505 256q0 49 -17.5 91.5t-47.5 74.5t-70 50.5t-85 18.5t-85 -18.5t-70 -50.5t-47.5 -74.5t-17.5 -91.5q0 -48 17.5 -90t47.5 -73.5t70 -49.5t85 -18t85 18t70 49.5t47.5 73.5t17.5 90zM978 295q-6 42 -25.5 77.5t-48 62t-65 41.5t-76.5 15q-41 0 -78 -15t-65.5 -41.5
t-48 -62t-26.5 -77.5h433zM543 258q0 -50 17.5 -93t48 -74t71.5 -48.5t88 -17.5q45 0 78.5 11.5t57.5 30.5t39.5 43t24.5 50h40q-26 -84 -87.5 -128t-152.5 -44q-43 0 -82 13t-70.5 36.5t-55.5 56t-37 71.5q-13 -39 -36.5 -71.5t-54 -56t-68 -36.5t-79.5 -13q-53 0 -100 21
t-82 57.5t-55 85t-20 104.5t20 105.5t55 86.5t82 58.5t100 21.5q42 0 79.5 -13.5t68.5 -37.5t54.5 -57t35.5 -72q13 39 36.5 72t54.5 57t69 37.5t80 13.5q57 0 104.5 -24t81.5 -62.5t52.5 -86.5t18.5 -97h-477z" />
    <glyph glyph-name="endash" unicode="&#x2013;" horiz-adv-x="531" 
d="M489 258h-445v37h445v-37z" />
    <glyph glyph-name="emdash" unicode="&#x2014;" horiz-adv-x="975" 
d="M933 258h-889v37h889v-37z" />
    <glyph glyph-name="quotedblleft" unicode="&#x201c;" horiz-adv-x="265" 
d="M39 504v110q0 21 7 36.5t18 26t25 15.5t29 5v-34q-20 -1 -31.5 -14t-11.5 -35v-110h-36zM155 504v110q0 21 7 36.5t18 26t25 15.5t29 5v-34q-20 -1 -31.5 -14t-11.5 -35v-110h-36z" />
    <glyph glyph-name="quotedblright" unicode="&#x201d;" horiz-adv-x="264" 
d="M111 694v-110q0 -21 -7 -36.5t-18 -26t-25 -15.5t-29 -5v34q20 1 31.5 14t11.5 35v110h36zM227 694v-110q0 -21 -7 -36.5t-18 -26t-25 -15.5t-29 -5v34q20 1 31.5 14t11.5 35v110h36z" />
    <glyph glyph-name="quoteleft" unicode="&#x2018;" horiz-adv-x="149" 
d="M39 504v110q0 21 7 36.5t18 26t25 15.5t29 5v-34q-20 -1 -31.5 -14t-11.5 -35v-110h-36z" />
    <glyph glyph-name="quoteright" unicode="&#x2019;" horiz-adv-x="148" 
d="M111 694v-110q0 -21 -7 -36.5t-18 -26t-25 -15.5t-29 -5v34q20 1 31.5 14t11.5 35v110h36z" />
    <glyph glyph-name="divide" unicode="&#xf7;" 
d="M97 267h-37v93h37v-93z" />
    <glyph glyph-name="lozenge" unicode="&#x25ca;" 
d="M97 267h-37v93h37v-93z" />
    <glyph glyph-name="ydieresis" unicode="&#xff;" horiz-adv-x="445" 
d="M215 -75q-28 -74 -79.5 -102.5t-120.5 -15.5v35q60 -9 101 12t64 84l24 63l-194 514h40l173 -462l175 462h39zM138 595v69h47v-69h-47zM273 595v69h47v-69h-47z" />
    <glyph glyph-name="Ydieresis" unicode="&#x178;" horiz-adv-x="546" 
d="M292 0h-37v300l-249 394h44l223 -354h1l222 354h44l-248 -394v-300zM184 777v68h47v-68h-47zM319 777v68h47v-68h-47z" />
    <glyph glyph-name="fraction" unicode="&#x2044;" 
d="M97 267h-37v93h37v-93z" />
    <glyph glyph-name="fraction" unicode="&#x2215;" 
d="M97 267h-37v93h37v-93z" />
    <glyph glyph-name="currency" unicode="&#xa4;" horiz-adv-x="661" 
d="M645 143q-41 -65 -107 -104t-145 -39q-53 0 -100.5 18t-86 49.5t-66.5 75.5t-41 95h-84v35h77q-2 12 -3 24t-1 24q0 9 0.5 17.5t1.5 17.5h-75v36h81q12 54 39.5 99.5t66.5 79t88 52.5t103 19q79 0 143.5 -36.5t104.5 -99.5l-18 -37q-35 63 -95 101t-135 38
q-47 0 -89 -16.5t-76 -45.5t-58.5 -68.5t-35.5 -85.5h451l-17 -36h-440q-3 -18 -3 -35q0 -12 1 -24t3 -24h399l-18 -35h-373q12 -44 37 -81.5t58.5 -64.5t74.5 -42.5t86 -15.5q64 0 118 29.5t91 79.5h43z" />
    <glyph glyph-name="guilsinglleft" unicode="&#x2039;" horiz-adv-x="168" 
d="M47 299l103 -84v-48l-130 108v48l130 108v-48z" />
    <glyph glyph-name="guilsinglright" unicode="&#x203a;" horiz-adv-x="168" 
d="M150 275l-130 -108v48l103 84l-103 84v48l130 -108v-48z" />
    <glyph glyph-name="daggerdbl" unicode="&#x2021;" horiz-adv-x="331" 
d="M185 390h123v-35h-123v-131h-37v131h-122v35h122v138h-122v35h122v131h37v-131h123v-35h-123v-138z" />
    <glyph glyph-name="periodcentered" unicode="&#xb7;" 
d="M97 267h-37v93h37v-93z" />
    <glyph glyph-name="periodcentered" unicode="&#x2219;" 
d="M97 267h-37v93h37v-93z" />
    <glyph glyph-name="quotesinglbase" unicode="&#x201a;" horiz-adv-x="148" 
d="M106 93v-110q0 -21 -7 -36.5t-18 -26t-25 -15.5t-29 -5v34q20 1 31.5 14t11.5 35v110h36z" />
    <glyph glyph-name="quotedblbase" unicode="&#x201e;" horiz-adv-x="264" 
d="M106 93v-110q0 -21 -7 -36.5t-18 -26t-25 -15.5t-29 -5v34q20 1 31.5 14t11.5 35v110h36zM222 93v-110q0 -21 -7 -36.5t-18 -26t-25 -15.5t-29 -5v34q20 1 31.5 14t11.5 35v110h36z" />
    <glyph glyph-name="perthousand" unicode="&#x2030;" horiz-adv-x="1054" 
d="M516 51q24 0 45 9t37 25t25 37.5t9 45.5t-9 45.5t-25 37.5t-37 25t-45 9t-45.5 -9t-37 -25t-25 -37.5t-9.5 -45.5t9.5 -45.5t25 -37.5t37 -25t45.5 -9zM874 51q24 0 45 9t37 25t25 37.5t9 45.5t-9 45.5t-25 37.5t-37 25t-45 9t-45 -9t-37 -25t-25 -37.5t-9 -45.5t9 -45.5
t25 -37.5t37 -25t45 -9zM180 409q24 0 45.5 9t37.5 25t25 37.5t9 45.5t-9 45.5t-25 37.5t-37.5 25.5t-45.5 9.5t-45 -9.5t-36.5 -25.5t-25 -37.5t-9.5 -45.5t9.5 -45.5t25 -37.5t36.5 -25t45 -9zM516 322q31 0 59 -12t49 -33t33 -49t12 -60t-12 -60t-33 -48.5t-49 -32.5
t-59 -12q-32 0 -60 12t-49 32.5t-33 48.5t-12 60t12 60t33 49t49 33t60 12zM874 322q32 0 60 -12t49 -33t33 -49t12 -60t-12 -60t-33 -48.5t-49 -32.5t-60 -12t-59.5 12t-48.5 32.5t-33 48.5t-12 60t12 60t33 49t48.5 33t59.5 12zM528 694h40l-407 -706h-40zM180 680
q32 0 60 -12t49 -33t33 -49t12 -60t-12 -60t-33 -48.5t-49 -32.5t-60 -12t-59.5 12t-48.5 32.5t-33 48.5t-12 60t12 60t33 49t48.5 33t59.5 12z" />
    <glyph glyph-name="Acircumflex" unicode="&#xc2;" horiz-adv-x="583" 
d="M291 643l-140 -367h281zM137 239l-92 -239h-40l266 694h41l266 -694h-40l-92 239h-309zM259 861h45l81 -98h-45l-59 73l-58 -73h-45z" />
    <glyph glyph-name="Ecircumflex" unicode="&#xca;" horiz-adv-x="598" 
d="M121 382h379v-36h-379v-309h423v-37h-460v694h460v-37h-423v-275zM290 861h45l81 -98h-45l-58 73l-58 -73h-45z" />
    <glyph glyph-name="Aacute" unicode="&#xc1;" horiz-adv-x="583" 
d="M291 643l-140 -367h281zM137 239l-92 -239h-40l266 694h41l266 -694h-40l-92 239h-309zM310 765h-42l84 103h48z" />
    <glyph glyph-name="Edieresis" unicode="&#xcb;" horiz-adv-x="598" 
d="M121 382h379v-36h-379v-309h423v-37h-460v694h460v-37h-423v-275zM228 777v68h48v-68h-48zM364 777v68h47v-68h-47z" />
    <glyph glyph-name="Egrave" unicode="&#xc8;" horiz-adv-x="598" 
d="M121 382h379v-36h-379v-309h423v-37h-460v694h460v-37h-423v-275zM252 868l83 -103h-41l-90 103h48z" />
    <glyph glyph-name="Iacute" unicode="&#xcd;" horiz-adv-x="209" 
d="M124 0h-37v694h37v-694zM125 765h-42l84 102h48z" />
    <glyph glyph-name="Icircumflex" unicode="&#xce;" horiz-adv-x="209" 
d="M124 0h-37v694h37v-694zM82 861h45l81 -98h-45l-58 73l-59 -73h-45z" />
    <glyph glyph-name="Idieresis" unicode="&#xcf;" horiz-adv-x="209" 
d="M124 0h-37v694h37v-694zM20 776v69h47v-69h-47zM141 776v69h48v-69h-48z" />
    <glyph glyph-name="Igrave" unicode="&#xcc;" horiz-adv-x="209" 
d="M124 0h-37v694h37v-694zM32 868l84 -103h-41l-91 103h48z" />
    <glyph glyph-name="Oacute" unicode="&#xd3;" horiz-adv-x="748" 
d="M375 25q63 0 119 25.5t97 70t65 103.5t24 126q0 68 -23.5 127.5t-65 103t-97 68.5t-119.5 25q-63 0 -119 -25.5t-97.5 -69.5t-65.5 -103t-24 -126q0 -68 24 -127t65.5 -103t97.5 -69.5t119 -25.5zM375 711q72 0 135 -28t109 -76.5t72.5 -114.5t26.5 -142q0 -75 -27 -141
t-73.5 -115t-109 -77.5t-133.5 -28.5t-133.5 28.5t-109 77.5t-73.5 115t-27 141t27 140.5t73.5 114.5t109 77.5t133.5 28.5zM398 765h-41l84 103h47z" />
    <glyph glyph-name="Ocircumflex" unicode="&#xd4;" horiz-adv-x="748" 
d="M375 25q63 0 119 25.5t97 70t65 103.5t24 126q0 68 -23.5 127.5t-65 103t-97 68.5t-119.5 25q-63 0 -119 -25.5t-97.5 -69.5t-65.5 -103t-24 -126q0 -68 24 -127t65.5 -103t97.5 -69.5t119 -25.5zM375 711q72 0 135 -28t109 -76.5t72.5 -114.5t26.5 -142q0 -75 -27 -141
t-73.5 -115t-109 -77.5t-133.5 -28.5t-133.5 28.5t-109 77.5t-73.5 115t-27 141t27 140.5t73.5 114.5t109 77.5t133.5 28.5zM347 861h45l81 -98h-45l-58 73l-59 -73h-45z" />
    <glyph glyph-name="Ograve" unicode="&#xd2;" horiz-adv-x="748" 
d="M375 25q63 0 119 25.5t97 70t65 103.5t24 126q0 68 -23.5 127.5t-65 103t-97 68.5t-119.5 25q-63 0 -119 -25.5t-97.5 -69.5t-65.5 -103t-24 -126q0 -68 24 -127t65.5 -103t97.5 -69.5t119 -25.5zM375 711q72 0 135 -28t109 -76.5t72.5 -114.5t26.5 -142q0 -75 -27 -141
t-73.5 -115t-109 -77.5t-133.5 -28.5t-133.5 28.5t-109 77.5t-73.5 115t-27 141t27 140.5t73.5 114.5t109 77.5t133.5 28.5zM305 868l84 -103h-41l-90 103h47z" />
    <glyph glyph-name="Uacute" unicode="&#xda;" horiz-adv-x="676" 
d="M605 248q0 -57 -19.5 -105t-54.5 -82.5t-84 -54t-108 -19.5t-107.5 19.5t-84 54t-55 82.5t-19.5 105v446h37v-446q0 -50 16.5 -91t47 -70.5t72.5 -45.5t93 -16t93.5 16t72.5 45.5t46.5 70.5t16.5 91v446h37v-446zM355 765h-42l84 103h48z" />
    <glyph glyph-name="Ucircumflex" unicode="&#xdb;" horiz-adv-x="676" 
d="M605 248q0 -57 -19.5 -105t-54.5 -82.5t-84 -54t-108 -19.5t-107.5 19.5t-84 54t-55 82.5t-19.5 105v446h37v-446q0 -50 16.5 -91t47 -70.5t72.5 -45.5t93 -16t93.5 16t72.5 45.5t46.5 70.5t16.5 91v446h37v-446zM323 861h45l81 -98h-45l-58 73l-58 -73h-45z" />
    <glyph glyph-name="Ugrave" unicode="&#xd9;" horiz-adv-x="676" 
d="M605 248q0 -57 -19.5 -105t-54.5 -82.5t-84 -54t-108 -19.5t-107.5 19.5t-84 54t-55 82.5t-19.5 105v446h37v-446q0 -50 16.5 -91t47 -70.5t72.5 -45.5t93 -16t93.5 16t72.5 45.5t46.5 70.5t16.5 91v446h37v-446zM282 868l84 -103h-41l-90 103h47z" />
    <glyph glyph-name="dotlessi" unicode="&#x131;" horiz-adv-x="191" 
d="M115 0h-37v515h37v-515z" />
    <glyph glyph-name="circumflex" unicode="&#x2c6;" horiz-adv-x="395" 
d="M255 590l-57 72l-56 -72h-47l81 99h45l81 -99h-47z" />
    <glyph glyph-name="tilde" unicode="&#x2dc;" horiz-adv-x="395" 
d="M327 673q-8 -40 -28.5 -57.5t-43.5 -17.5q-19 0 -34 7t-27.5 15t-25 14.5t-27.5 6.5q-11 -1 -22 -10t-18 -29h-31q8 39 28 56.5t43 17.5q20 0 34.5 -6.5t27.5 -14.5t25 -14.5t27 -6.5q11 0 22.5 9t17.5 30h32z" />
    <glyph glyph-name="macron" unicode="&#xaf;" horiz-adv-x="414" 
d="M344 599h-274v37h274v-37z" />
    <glyph glyph-name="macron" unicode="&#x2c9;" horiz-adv-x="414" 
d="M344 599h-274v37h274v-37z" />
    <glyph glyph-name="breve" unicode="&#x2d8;" horiz-adv-x="401" 
d="M331 694q-11 -48 -45.5 -76t-84.5 -28q-51 0 -85.5 28t-45.5 76h35q23 -69 96 -69q74 0 95 69h35z" />
    <glyph glyph-name="dotaccent" unicode="&#x2d9;" horiz-adv-x="187" 
d="M70 595v69h47v-69h-47z" />
    <glyph glyph-name="ring" unicode="&#x2da;" horiz-adv-x="305" 
d="M152 610q23 0 38.5 16t15.5 39t-15.5 39t-38.5 16q-22 0 -37.5 -16t-15.5 -39t15.5 -39t37.5 -16zM152 748q35 0 59 -24.5t24 -58.5t-24 -58t-59 -24q-34 0 -58 24t-24 58t24 58.5t58 24.5z" />
    <glyph glyph-name="cedilla" unicode="&#xb8;" horiz-adv-x="300" 
d="M230 -117q0 -30 -21.5 -47.5t-56.5 -17.5q-20 0 -42 9t-40 27l11 21q15 -13 32 -21t37 -8q19 0 34 8.5t15 28.5q0 17 -12 28t-33 11q-9 0 -20.5 -3.5t-20.5 -11.5l-23 17l40 76h35l-34 -58q14 7 31 6.5t32 -8t25.5 -22t10.5 -35.5z" />
    <glyph glyph-name="hungarumlaut" unicode="&#x2dd;" horiz-adv-x="349" 
d="M109 592h-39l68 103h47zM203 592h-39l67 103h48z" />
    <glyph glyph-name="ogonek" unicode="&#x2db;" horiz-adv-x="277" 
d="M207 -159q-20 -11 -40 -15t-37.5 -1.5t-31.5 11t-21 22.5q-6 13 -7 31t5.5 37t21.5 38t41 36h40q-45 -30 -63.5 -65.5t-4.5 -61.5q9 -17 37.5 -18t59.5 14v-28z" />
    <glyph glyph-name="caron" unicode="&#x2c7;" horiz-adv-x="347" 
d="M196 590h-45l-81 99h45l59 -74l59 74h44z" />
    <glyph glyph-name="lslash" unicode="&#x142;" horiz-adv-x="251" 
d="M145 336v-336h-37v313l-93 -55v43l93 56v337h37v-315l92 56v-44z" />
    <glyph glyph-name="Scaron" unicode="&#x160;" horiz-adv-x="596" 
d="M297 712q60 0 104 -17.5t72.5 -46.5t42.5 -66t14 -75h-37q0 38 -14 69.5t-39.5 53.5t-61.5 34t-81 12t-81.5 -11t-62.5 -30.5t-40 -47t-14 -60.5q0 -57 47.5 -91t158.5 -56q58 -12 104 -27t77.5 -37t48 -53.5t16.5 -76.5t-18 -82t-52 -63t-81.5 -40t-105.5 -14
q-45 0 -90 13.5t-81 41t-58 70t-22 99.5h37q0 -48 18.5 -83t48.5 -58t68.5 -34t78.5 -11q102 0 161 43t59 118q0 32 -11 56t-36.5 42.5t-66.5 33t-102 26.5q-46 9 -88.5 22t-75.5 34t-52.5 51.5t-19.5 75.5q0 42 17 76t47.5 58t74 37.5t96.5 13.5zM323 766h-45l-81 99h45
l59 -74l59 74h44z" />
    <glyph glyph-name="scaron" unicode="&#x161;" horiz-adv-x="511" 
d="M478 146q1 -27 -8 -52.5t-28 -45.5q-28 -29 -72 -44.5t-98 -15.5q-98 0 -162 41.5t-77 120.5h37q14 -63 66.5 -95t134.5 -32q47 0 84 14t60 37q28 30 25 71q-2 47 -43.5 73t-135.5 40q-33 5 -68.5 11.5t-64.5 20t-48 37t-20 61.5q0 26 12.5 51.5t37 45t61 31.5t84.5 12
q86 0 140 -37t71 -107h-38q-16 52 -59.5 80.5t-112.5 28.5q-35 0 -64 -8t-50 -22t-32.5 -33.5t-11.5 -41.5q1 -44 42 -63t127 -31q40 -6 77.5 -15.5t66.5 -26t47 -42t20 -64.5zM293 594h-45l-81 99h45l59 -74l59 74h44z" />
    <glyph glyph-name="Yacute" unicode="&#xdd;" horiz-adv-x="546" 
d="M292 0h-37v300l-249 394h44l223 -354h1l222 354h44l-248 -394v-300zM308 747h-42l84 103h48z" />
    <glyph glyph-name="yacute" unicode="&#xfd;" horiz-adv-x="445" 
d="M215 -75q-28 -74 -79.5 -102.5t-120.5 -15.5v35q60 -9 101 12t64 84l24 63l-194 514h40l173 -462l175 462h39zM253 593h-41l83 102h48z" />
    <glyph glyph-name="Thorn" unicode="&#xde;" horiz-adv-x="592" 
d="M530 372q0 75 -43.5 115.5t-124.5 40.5h-241v-311h244q31 0 60.5 9t52.5 28t37.5 48.5t14.5 69.5zM568 372q0 -42 -15 -77.5t-42 -61t-64 -39.5t-82 -14h-244v-180h-37v694h37v-129h241q96 0 151 -51.5t55 -141.5z" />
    <glyph glyph-name="thorn" unicode="&#xfe;" horiz-adv-x="608" 
d="M545 256q0 48 -17.5 91t-47.5 74.5t-70 50t-85 18.5t-85 -18.5t-70 -50t-47.5 -74.5t-17.5 -91t17.5 -90t47.5 -73.5t70 -49.5t85 -18t85 18t70 49.5t47.5 73.5t17.5 90zM582 256q0 -56 -20 -104.5t-55 -85t-82 -57.5t-100 -21q-72 0 -130 37.5t-90 98.5v-353h-37v923h37
v-304q16 31 38.5 56.5t51 43.5t61.5 28t69 10q53 0 100 -21.5t82 -58.5t55 -86.5t20 -105.5z" />
    <glyph glyph-name="Zcaron" unicode="&#x17d;" horiz-adv-x="546" 
d="M538 0h-525v37l478 620h-466v37h513v-38l-478 -619h478v-37zM303 764h-45l-81 99h45l59 -74l59 74h44z" />
    <glyph glyph-name="zcaron" unicode="&#x17e;" horiz-adv-x="437" 
d="M431 0h-421v37l362 441h-351v37h399v-37l-362 -441h373v-37zM243 568h-45l-81 99h45l59 -74l59 74h44z" />
    <glyph glyph-name="onehalf" unicode="&#xbd;" horiz-adv-x="708" 
d="M662 35v-35h-286v19q0 62 39 106q19 23 45.5 40t53.5 31q35 19 57.5 34.5t36 29.5t18.5 29t5 34q0 38 -25.5 63.5t-75.5 25.5q-51 0 -80 -32.5t-29 -83.5h-37q0 35 11.5 62.5t31 47t46.5 29.5t57 10q66 0 103 -37q36 -34 36 -85q0 -27 -8 -48t-25 -39t-43 -35t-62 -36
q-54 -29 -83.5 -57.5t-33.5 -72.5h248zM100 -12h-40l408 706h40zM46 618v30q29 2 46.5 12t19.5 34h37v-436h-37v360h-66z" />
    <glyph glyph-name="onequarter" unicode="&#xbc;" horiz-adv-x="604" 
d="M492 379l-170 -240h170v240zM529 105v-105h-37v105h-213v34l213 297h37v-297h45v-34h-45zM99 -12h-40l408 706h40zM46 618v30q29 2 46.5 12t19.5 34h37v-436h-37v360h-66z" />
    <glyph glyph-name="onesuperior" unicode="&#xb9;" horiz-adv-x="263" 
d="M149 258h-38v360h-65v30q29 2 46 12t19 34h38v-436z" />
    <glyph glyph-name="threequarters" unicode="&#xbe;" horiz-adv-x="750" 
d="M638 379l-171 -240h171v240zM675 105v-105h-37v105h-213v34l212 297h38v-297h45v-34h-45zM245 -12h-40l407 706h40zM183 249q-39 0 -67.5 11.5t-47 31t-27.5 44.5t-9 53h37q0 -43 27.5 -75t86.5 -32q30 0 52 8.5t36 22.5t21 31.5t7 35.5q0 19 -6 35.5t-19.5 29t-36 19.5
t-55.5 7h-27v37h27q48 0 74 22t26 58q0 37 -25 59.5t-71 22.5q-45 0 -74 -27t-29 -73h-38q0 28 10 52.5t28.5 42.5t44.5 28t58 10q64 0 100 -33q34 -32 34 -82q0 -27 -14.5 -54t-50.5 -42q38 -12 59.5 -39t21.5 -72q0 -24 -9 -47.5t-28 -42t-48 -30.5t-68 -12z" />
    <glyph glyph-name="threesuperior" unicode="&#xb3;" horiz-adv-x="377" 
d="M337 381q0 -24 -9 -47.5t-28 -42t-48 -30.5t-68 -12t-67.5 11.5t-47.5 31t-28 44.5t-9 53h38q0 -43 27.5 -75t86.5 -32q30 0 52 8.5t36 22.5t21 31.5t7 35.5q0 19 -6 35.5t-19.5 29t-36 19.5t-56.5 7h-26v37h26q49 0 75 22t26 58q0 37 -25 59.5t-71 22.5q-45 0 -74 -27
t-29 -73h-37q0 28 10 52.5t28 42.5t44 28t58 10q64 0 100 -33q33 -32 33 -82q0 -27 -14 -54t-50 -42q38 -12 59.5 -39t21.5 -72z" />
    <glyph glyph-name="twosuperior" unicode="&#xb2;" horiz-adv-x="371" 
d="M326 293v-35h-286v18q0 64 39 107q19 22 45 39t53 32q35 19 58 34t36.5 29.5t18.5 29.5t5 33q0 39 -25.5 64.5t-75.5 25.5q-51 0 -80 -33t-29 -83h-37q0 35 11.5 62.5t31 47t46.5 29.5t57 10q64 0 103 -37q35 -33 35 -86q0 -27 -8 -47.5t-25 -38.5t-42.5 -35t-61.5 -36
q-55 -29 -84 -58t-33 -72h248z" />
    <glyph glyph-name="multiply" unicode="&#xd7;" horiz-adv-x="480" 
d="M465 55l-26 -27l-199 200l-199 -200l-26 27l199 199l-199 199l26 26l199 -199l199 199l26 -26l-199 -199z" />
    <glyph glyph-name="Lslash" unicode="&#x141;" horiz-adv-x="569" 
d="M544 0h-436v313l-93 -55v43l93 56v337h37v-315l156 94v-44l-156 -94v-298h399v-37z" />
    <glyph glyph-name="apple" horiz-adv-x="904" 
d="M761 138q-42 26 -86 42q-19 -49 -45.5 -87t-56.5 -62q54 11 102 38t86 69zM532 31q35 19 67 59t54 97q-28 8 -58.5 12.5t-62.5 6.5v-175zM704 336q-1 -37 -6.5 -70t-14.5 -64q25 -8 48 -20t45 -26q28 36 44.5 81t18.5 99h-135zM532 230q70 -3 128 -21q9 29 14.5 60.5
t6.5 66.5h-149v-106zM681 359q-1 35 -6.5 66t-14.5 60q-61 -17 -128 -20v-106h149zM683 492q9 -30 14.5 -63.5t6.5 -69.5h135q-2 54 -18.5 98.5t-44.5 81.5q-45 -30 -93 -47zM532 488q32 2 62.5 7t58.5 13q-22 57 -54 96.5t-67 59.5v-176zM573 664q30 -24 56.5 -62t45.5 -87
q44 16 86 42q-38 42 -86 69t-102 38zM479 694v-125h-92q-49 0 -88.5 -17.5t-67.5 -48t-43 -71t-15 -85.5t15 -85.5t43 -71t67.5 -48t88.5 -17.5h92v-125h-92q-79 0 -143 28t-109 75.5t-69.5 110.5t-24.5 133t24.5 133t69.5 110.5t109 75.5t143 28h92zM863 347
q0 -79 -30 -142t-78.5 -108t-110 -69.5t-124.5 -26.5l-12 -1v682v13l12 -1q63 -2 124.5 -26.5t110 -69.5t78.5 -108.5t30 -142.5z" />
    <glyph glyph-name="Eth" unicode="&#xd0;" horiz-adv-x="667" 
d="M599 348q0 149 -70.5 229t-201.5 80h-213v-257h235v-37h-235v-326h213q64 0 114.5 21.5t85.5 61.5t53.5 97.5t18.5 130.5zM637 348q0 -80 -21.5 -144.5t-62 -109.5t-97.5 -69.5t-129 -24.5h-250v363h-62v37h62v294h250q73 0 130.5 -23.5t97.5 -68t61 -109t21 -145.5z" />
    <glyph glyph-name="eth" unicode="&#xf0;" horiz-adv-x="561" 
d="M493 244q0 48 -17 90t-46 73.5t-68 49.5t-83 18t-83.5 -18t-68.5 -49.5t-46 -73.5t-17 -90q0 -47 17 -88.5t46 -72.5t68.5 -49t83.5 -18t83 18t68 49t46 72.5t17 88.5zM530 244q0 -54 -20 -101.5t-54 -83.5t-79.5 -56.5t-97.5 -20.5t-97.5 20.5t-79.5 56.5t-54 83.5
t-20 101.5q0 55 20 103t54 84t79.5 57t97.5 21q50 0 92.5 -19t75.5 -52q-31 62 -77 116t-100 96l-68 -51l-32 19l70 53q-44 31 -85 49l33 24q42 -19 83 -50l69 52l32 -20l-72 -54q32 -26 60.5 -54.5t52.5 -60.5q57 -75 87 -154t30 -159z" />
  </font>
</defs>
</svg>
